<svg width="50" height="43" viewBox="0 0 50 43" fill="none" xmlns="http://www.w3.org/2000/svg">
<path d="M46.4248 29.5259V11.2588L48.5184 10.5609C49.1046 10.3655 49.5 9.81689 49.5 9.19903C49.5 8.58117 49.1047 8.0326 48.5184 7.83717L25.4539 0.149055C25.1593 0.0509594 24.8407 0.0509594 24.5461 0.149055L1.48163 7.83717C0.89535 8.0325 0.5 8.58107 0.5 9.19903C0.5 9.81698 0.89535 10.3655 1.48163 10.5609L9.72578 13.3089V26.1129C9.72578 26.4937 9.87709 26.8588 10.1463 27.1281C14.1143 31.0956 19.3898 33.2807 25.0007 33.2807C30.6116 33.2807 35.8866 31.0956 39.8538 27.1279C40.123 26.8586 40.2742 26.4935 40.2742 26.1129V13.3089L43.5537 12.2158V29.5259C41.7683 30.127 40.4785 31.8157 40.4785 33.801V41.4892C40.4785 42.282 41.1212 42.9247 41.914 42.9247H48.0645C48.8573 42.9247 49.5 42.282 49.5 41.4892V33.801C49.5 31.8157 48.2101 30.127 46.4248 29.5259ZM37.4031 25.5051C30.4465 32.0326 19.5553 32.0327 12.5969 25.505V14.2659L24.546 18.249C24.8407 18.3471 25.1593 18.3471 25.4539 18.249L37.4031 14.2659V25.5051ZM25 15.3739L6.47522 9.19903L25 3.02407L43.5248 9.19893L25 15.3739ZM46.6289 40.0536H43.3494V33.801C43.3494 32.8969 44.085 32.1614 44.9891 32.1614C45.8932 32.1614 46.6289 32.8969 46.6289 33.801V40.0536Z" fill="#25292A"/>
</svg>
