<svg width="49" height="49" viewBox="0 0 49 49" fill="none" xmlns="http://www.w3.org/2000/svg">
<path d="M8.1665 8.16667H20.4165V20.4167H8.1665V8.16667Z" stroke="#25292A" stroke-width="2.695" stroke-linecap="round" stroke-linejoin="round"/>
<path d="M28.5832 8.16667H40.8332V20.4167H28.5832V8.16667Z" stroke="#25292A" stroke-width="2.695" stroke-linecap="round" stroke-linejoin="round"/>
<path d="M8.1665 28.5833H20.4165V40.8333H8.1665V28.5833Z" stroke="#25292A" stroke-width="2.695" stroke-linecap="round" stroke-linejoin="round"/>
<path d="M28.5832 34.7083C28.5832 36.3328 29.2285 37.8907 30.3771 39.0394C31.5258 40.188 33.0837 40.8333 34.7082 40.8333C36.3326 40.8333 37.8905 40.188 39.0392 39.0394C40.1879 37.8907 40.8332 36.3328 40.8332 34.7083C40.8332 33.0839 40.1879 31.526 39.0392 30.3773C37.8905 29.2286 36.3326 28.5833 34.7082 28.5833C33.0837 28.5833 31.5258 29.2286 30.3771 30.3773C29.2285 31.526 28.5832 33.0839 28.5832 34.7083Z" stroke="#25292A" stroke-width="2.695" stroke-linecap="round" stroke-linejoin="round"/>
</svg>
