<svg width="50" height="49" viewBox="0 0 50 49" fill="none" xmlns="http://www.w3.org/2000/svg">
<path d="M39.7171 29.0174C39.4753 29.0176 39.2388 28.9472 39.0365 28.8148C38.8342 28.6825 38.6749 28.4939 38.5782 28.2724C38.4815 28.0508 38.4516 27.8058 38.4922 27.5675C38.5328 27.3292 38.6421 27.1079 38.8066 26.9308C38.9548 26.771 42.4907 23.0149 48.2557 23.0149C48.5849 23.0149 48.9007 23.1457 49.1336 23.3785C49.3664 23.6114 49.4972 23.9272 49.4972 24.2564C49.4972 24.5857 49.3664 24.9015 49.1336 25.1344C48.9007 25.3672 48.5849 25.498 48.2557 25.498C43.6081 25.498 40.6565 28.5878 40.6276 28.6193C40.5116 28.7451 40.3709 28.8454 40.2141 28.9139C40.0574 28.9825 39.8881 29.0177 39.7171 29.0174Z" fill="#25292A"/>
<path d="M17.9989 33.9472C17.7803 33.9469 17.5657 33.889 17.3767 33.7792C17.1878 33.6694 17.0311 33.5117 16.9226 33.322C16.8141 33.1323 16.7576 32.9173 16.7588 32.6988C16.76 32.4802 16.8189 32.2659 16.9295 32.0774C20.1302 26.6195 24.0113 23.5165 28.4635 22.8526C35.0562 21.871 40.3369 26.6559 40.5587 26.8604C40.8008 27.0836 40.9444 27.3939 40.9577 27.723C40.9711 28.0521 40.8532 28.373 40.6299 28.6151C40.4066 28.8572 40.0963 29.0008 39.7673 29.0141C39.4382 29.0275 39.1173 28.9095 38.8752 28.6863C38.8313 28.6457 34.2193 24.4956 28.8111 25.3117C25.1461 25.8647 21.8692 28.5638 19.0707 33.3338C18.9611 33.5207 18.8045 33.6756 18.6165 33.7832C18.4284 33.8908 18.2155 33.9473 17.9989 33.9472Z" fill="#25292A"/>
<path d="M32.8236 42.4527C31.2245 42.4527 29.4134 42.1862 27.4121 41.4892C27.1011 41.3805 26.8461 41.1526 26.7031 40.8558C26.5602 40.559 26.541 40.2176 26.6497 39.9067C26.7585 39.5957 26.9864 39.3407 27.2831 39.1977C27.5799 39.0548 27.9214 39.0356 28.2323 39.1444C36.165 41.9056 40.4368 36.8483 40.4823 36.797C40.5828 36.6629 40.7094 36.5506 40.8545 36.4667C40.9996 36.3829 41.1602 36.3293 41.3265 36.3092C41.4929 36.289 41.6616 36.3028 41.8225 36.3496C41.9834 36.3964 42.1332 36.4753 42.2628 36.5815C42.3923 36.6877 42.4991 36.8191 42.5766 36.9677C42.6541 37.1163 42.7006 37.279 42.7136 37.4461C42.7265 37.6131 42.7054 37.7811 42.6517 37.9398C42.598 38.0985 42.5127 38.2447 42.4009 38.3696C42.3446 38.4375 40.9996 40.054 38.4735 41.2277C36.7025 42.0445 34.7738 42.4627 32.8236 42.4527Z" fill="#25292A"/>
<path d="M21.7552 23.1863C21.6497 23.1861 21.5446 23.1727 21.4424 23.1466C21.2845 23.1056 21.1363 23.0339 21.0062 22.9357C20.876 22.8374 20.7665 22.7145 20.6839 22.5739C20.6013 22.4333 20.5471 22.2779 20.5246 22.1164C20.5021 21.9549 20.5116 21.7905 20.5526 21.6327L23.6978 9.53498C23.7322 9.37037 23.7995 9.21444 23.8959 9.07665C23.9923 8.93887 24.1157 8.8221 24.2585 8.73342C24.4014 8.64475 24.5608 8.58602 24.7271 8.5608C24.8933 8.53558 25.063 8.5444 25.2257 8.58671C25.3884 8.62902 25.5409 8.70395 25.6738 8.80695C25.8067 8.90996 25.9173 9.03888 25.9989 9.18591C26.0805 9.33294 26.1314 9.49502 26.1484 9.6623C26.1655 9.82958 26.1484 9.99859 26.0982 10.1591L22.9529 22.2568C22.884 22.5222 22.7291 22.7574 22.5124 22.9256C22.2957 23.0937 22.0295 23.1854 21.7552 23.1863Z" fill="#25292A"/>
<path d="M29.2615 49.0023C22.9544 49.0023 17.6853 47.1201 14.2958 45.4837C11.9688 44.3696 9.50834 43.559 6.9748 43.0718C4.0886 42.5081 2.06321 41.2326 1.1188 39.3827C0.157008 37.5005 0.322549 35.12 1.60963 32.3075C4.57777 23.2226 11.4874 12.2895 16.7682 4.70939C17.4921 3.6718 18.4257 2.79757 19.5085 2.14318C20.5913 1.48878 21.7993 1.06876 23.0546 0.910239L29.9709 0.0386682C31.2132 -0.118707 32.4684 0.207999 33.4764 0.951065C34.4843 1.69413 35.1677 2.79657 35.3849 4.02985L36.0007 7.51779C36.125 8.22363 36.0724 8.9493 35.8474 9.62979C35.6224 10.3103 35.2322 10.9243 34.7116 11.4169C34.191 11.9096 33.5563 12.2654 32.8645 12.4524C32.1726 12.6395 31.4452 12.6521 30.7472 12.489L24.6123 11.0562C24.2916 10.9814 24.0137 10.7822 23.8399 10.5025C23.666 10.2227 23.6104 9.88542 23.6853 9.5647C23.7601 9.24398 23.9593 8.96613 24.2391 8.79228C24.5188 8.61843 24.8561 8.56282 25.1768 8.63767L31.3117 10.0704C31.61 10.141 31.921 10.1363 32.217 10.0568C32.5129 9.97735 32.7845 9.82557 33.0073 9.61512C33.23 9.40468 33.397 9.14217 33.4931 8.8512C33.5893 8.56024 33.6116 8.24993 33.5581 7.9482L32.9423 4.46026C32.8354 3.85462 32.4996 3.31331 32.0046 2.94845C31.5095 2.58358 30.893 2.4231 30.2829 2.50026L23.3641 3.37017C22.4537 3.48534 21.5775 3.79023 20.7922 4.26514C20.0069 4.74004 19.33 5.37441 18.8052 6.12725C13.6072 13.5898 6.81008 24.3367 3.94789 33.1435C3.93291 33.1906 3.91494 33.2368 3.89409 33.2817C2.91491 35.3965 2.72537 37.0684 3.33042 38.2529C4.06956 39.6997 5.97907 40.347 7.45155 40.6342C10.1939 41.1623 12.8571 42.0402 15.376 43.2464C21.0623 45.9927 32.4631 49.4856 44.925 42.0239C45.0649 41.9401 45.2199 41.8848 45.3812 41.8609C45.5425 41.8371 45.7069 41.8452 45.865 41.8849C46.0231 41.9246 46.1719 41.9951 46.3028 42.0923C46.4337 42.1895 46.5442 42.3115 46.628 42.4514C46.7117 42.5913 46.7671 42.7463 46.7909 42.9076C46.8148 43.0689 46.8066 43.2333 46.7669 43.3914C46.7272 43.5496 46.6568 43.6983 46.5596 43.8293C46.4624 43.9602 46.3403 44.0706 46.2005 44.1544C40.174 47.7607 34.3759 49.0023 29.2615 49.0023Z" fill="#25292A"/>
</svg>
