<svg width="16" height="17" viewBox="0 0 16 17" fill="none" xmlns="http://www.w3.org/2000/svg">
<path d="M7.99992 14.8594C7.79992 14.8594 7.59992 14.8128 7.43325 14.7194C6.18659 14.0394 3.99325 13.3194 2.61992 13.1394L2.42659 13.1128C1.55325 13.0061 0.833252 12.1861 0.833252 11.2994V3.2461C0.833252 2.71943 1.03992 2.23943 1.41992 1.89276C1.79992 1.5461 2.29325 1.37943 2.81325 1.4261C4.27992 1.53943 6.49325 2.27276 7.74659 3.05943L7.90659 3.15276C7.95325 3.17943 8.05325 3.17943 8.09325 3.15943L8.19992 3.09276C9.45325 2.3061 11.6666 1.55943 13.1399 1.43276C13.1533 1.43276 13.2066 1.43276 13.2199 1.43276C13.7066 1.3861 14.2066 1.55943 14.5799 1.9061C14.9599 2.25276 15.1666 2.73276 15.1666 3.25943V11.3061C15.1666 12.1994 14.4466 13.0128 13.5666 13.1194L13.3466 13.1461C11.9733 13.3261 9.77325 14.0528 8.55325 14.7261C8.39325 14.8194 8.19992 14.8594 7.99992 14.8594ZM2.65325 2.41943C2.43992 2.41943 2.24659 2.49276 2.09325 2.63276C1.92659 2.7861 1.83325 3.0061 1.83325 3.2461V11.2994C1.83325 11.6928 2.17325 12.0728 2.55325 12.1261L2.75325 12.1528C4.25325 12.3528 6.55325 13.1061 7.88659 13.8328C7.94659 13.8594 8.03325 13.8661 8.06659 13.8528C9.39992 13.1128 11.7133 12.3528 13.2199 12.1528L13.4466 12.1261C13.8266 12.0794 14.1666 11.6928 14.1666 11.2994V3.25276C14.1666 3.0061 14.0733 2.79276 13.9066 2.63276C13.7333 2.47943 13.5133 2.4061 13.2666 2.41943C13.2533 2.41943 13.1999 2.41943 13.1866 2.41943C11.9133 2.53276 9.85992 3.21943 8.73992 3.91943L8.63325 3.99276C8.26659 4.21943 7.74659 4.21943 7.39325 3.99943L7.23325 3.9061C6.09325 3.2061 4.03992 2.5261 2.73325 2.41943C2.70659 2.41943 2.67992 2.41943 2.65325 2.41943Z" fill="#49909D"/>
<path d="M8 14.2994C7.72667 14.2994 7.5 14.0727 7.5 13.7994V3.79938C7.5 3.52604 7.72667 3.29938 8 3.29938C8.27333 3.29938 8.5 3.52604 8.5 3.79938V13.7994C8.5 14.0794 8.27333 14.2994 8 14.2994Z" fill="#49909D"/>
<path d="M5.16675 6.29938H3.66675C3.39341 6.29938 3.16675 6.07271 3.16675 5.79938C3.16675 5.52604 3.39341 5.29938 3.66675 5.29938H5.16675C5.44008 5.29938 5.66675 5.52604 5.66675 5.79938C5.66675 6.07271 5.44008 6.29938 5.16675 6.29938Z" fill="#49909D"/>
<path d="M5.66675 8.29938H3.66675C3.39341 8.29938 3.16675 8.07271 3.16675 7.79938C3.16675 7.52604 3.39341 7.29938 3.66675 7.29938H5.66675C5.94008 7.29938 6.16675 7.52604 6.16675 7.79938C6.16675 8.07271 5.94008 8.29938 5.66675 8.29938Z" fill="#49909D"/>
</svg>
