<svg width="24" height="25" viewBox="0 0 24 25" fill="none" xmlns="http://www.w3.org/2000/svg">
<path d="M21.09 7.61796C20.24 6.67796 18.82 6.20796 16.76 6.20796H16.52V6.16796C16.52 4.48796 16.52 2.40796 12.76 2.40796H11.24C7.48004 2.40796 7.48004 4.49796 7.48004 6.16796V6.21796H7.24004C5.17004 6.21796 3.76004 6.68796 2.91004 7.62796C1.92004 8.72796 1.95004 10.208 2.05004 11.218L2.06004 11.288L2.12622 11.9829C2.14762 12.2075 2.26874 12.4107 2.45798 12.5337C2.69852 12.69 3.03035 12.9015 3.24004 13.018C3.38004 13.108 3.53004 13.188 3.68004 13.268C5.39004 14.208 7.27004 14.838 9.18004 15.148C9.27004 16.088 9.68004 17.188 11.87 17.188C14.06 17.188 14.49 16.098 14.56 15.128C16.6 14.798 18.57 14.088 20.35 13.048C20.41 13.018 20.45 12.988 20.5 12.958C20.8657 12.7513 21.2439 12.5004 21.5947 12.2505C21.7649 12.1292 21.8732 11.9398 21.8962 11.7321L21.9 11.698L21.95 11.228C21.96 11.168 21.96 11.118 21.97 11.048C22.05 10.038 22.03 8.65796 21.09 7.61796ZM13.09 14.468C13.09 15.528 13.09 15.688 11.86 15.688C10.63 15.688 10.63 15.498 10.63 14.478V13.218H13.09V14.468ZM8.91004 6.20796V6.16796C8.91004 4.46796 8.91004 3.83796 11.24 3.83796H12.76C15.09 3.83796 15.09 4.47796 15.09 6.16796V6.21796H8.91004V6.20796Z" fill="#6E9FCA"/>
<path d="M20.4685 14.5633C21.0005 14.3145 21.6116 14.7358 21.5585 15.3208L21.2401 18.828C21.0301 20.828 20.2101 22.868 15.8101 22.868H8.19009C3.79009 22.868 2.97009 20.828 2.76009 18.838L2.45902 15.5263C2.40646 14.9481 3.00335 14.5273 3.53379 14.7633C4.67338 15.2703 6.38413 15.9947 7.54464 16.3189C7.79002 16.3875 7.98883 16.5652 8.10598 16.7914C8.73726 18.0106 10.0298 18.658 11.8701 18.658C13.6924 18.658 14.9999 17.9856 15.6339 16.7617C15.7512 16.5353 15.9508 16.3576 16.1962 16.2885C17.4335 15.9399 19.2677 15.125 20.4685 14.5633Z" fill="#6E9FCA"/>
</svg>
