<svg width="16" height="17" viewBox="0 0 16 17" fill="none" xmlns="http://www.w3.org/2000/svg">
<path d="M15.3334 15.3061H0.666748C0.393415 15.3061 0.166748 15.0794 0.166748 14.8061C0.166748 14.5328 0.393415 14.3061 0.666748 14.3061H15.3334C15.6067 14.3061 15.8334 14.5328 15.8334 14.8061C15.8334 15.0794 15.6067 15.3061 15.3334 15.3061Z" fill="#49909D"/>
<path d="M13.1868 15.3128C12.9134 15.3128 12.6868 15.0861 12.6868 14.8128V11.8394C12.6868 11.5661 12.9134 11.3394 13.1868 11.3394C13.4601 11.3394 13.6868 11.5661 13.6868 11.8394V14.8128C13.6868 15.0861 13.4668 15.3128 13.1868 15.3128Z" fill="#49909D"/>
<path d="M13.2001 12.3394C12.1134 12.3394 11.2334 11.4594 11.2334 10.3727V8.85944C11.2334 7.77277 12.1134 6.89276 13.2001 6.89276C14.2867 6.89276 15.1667 7.77277 15.1667 8.85944V10.3727C15.1667 11.4594 14.2867 12.3394 13.2001 12.3394ZM13.2001 7.89943C12.6667 7.89943 12.2334 8.33278 12.2334 8.86611V10.3794C12.2334 10.9127 12.6667 11.3461 13.2001 11.3461C13.7334 11.3461 14.1667 10.9127 14.1667 10.3794V8.86611C14.1667 8.33278 13.7334 7.89943 13.2001 7.89943Z" fill="#49909D"/>
<path d="M9.53328 15.3061C9.25995 15.3061 9.03328 15.0794 9.03328 14.8061V4.1594C9.03328 3.0994 8.58663 2.64606 7.54663 2.64606H3.39331C2.34664 2.64606 1.89331 3.0994 1.89331 4.1594V14.8061C1.89331 15.0794 1.66664 15.3061 1.39331 15.3061C1.11998 15.3061 0.893311 15.0794 0.893311 14.8061V4.1594C0.893311 2.5394 1.77998 1.64606 3.39331 1.64606H7.54663C9.1533 1.64606 10.0333 2.5394 10.0333 4.1594V14.8061C10.0333 15.0794 9.80662 15.3061 9.53328 15.3061Z" fill="#49909D"/>
<path d="M7.16646 6.1394H3.86646C3.59312 6.1394 3.36646 5.91274 3.36646 5.6394C3.36646 5.36607 3.59312 5.1394 3.86646 5.1394H7.16646C7.4398 5.1394 7.66646 5.36607 7.66646 5.6394C7.66646 5.91274 7.4398 6.1394 7.16646 6.1394Z" fill="#49909D"/>
<path d="M7.16646 8.6394H3.86646C3.59312 8.6394 3.36646 8.41274 3.36646 8.1394C3.36646 7.86607 3.59312 7.6394 3.86646 7.6394H7.16646C7.4398 7.6394 7.66646 7.86607 7.66646 8.1394C7.66646 8.41274 7.4398 8.6394 7.16646 8.6394Z" fill="#49909D"/>
<path d="M5.5 15.3061C5.22667 15.3061 5 15.0794 5 14.8061V12.3061C5 12.0328 5.22667 11.8061 5.5 11.8061C5.77333 11.8061 6 12.0328 6 12.3061V14.8061C6 15.0794 5.77333 15.3061 5.5 15.3061Z" fill="#49909D"/>
</svg>
