<svg width="20" height="21" viewBox="0 0 20 21" fill="none" xmlns="http://www.w3.org/2000/svg">
<path d="M6.66675 5.42967C6.32508 5.42967 6.04175 5.14634 6.04175 4.80467V2.30467C6.04175 1.96301 6.32508 1.67967 6.66675 1.67967C7.00841 1.67967 7.29175 1.96301 7.29175 2.30467V4.80467C7.29175 5.14634 7.00841 5.42967 6.66675 5.42967Z" fill="#49909D"/>
<path d="M13.3333 5.42967C12.9916 5.42967 12.7083 5.14634 12.7083 4.80467V2.30467C12.7083 1.96301 12.9916 1.67967 13.3333 1.67967C13.6749 1.67967 13.9583 1.96301 13.9583 2.30467V4.80467C13.9583 5.14634 13.6749 5.42967 13.3333 5.42967Z" fill="#49909D"/>
<path d="M7.08333 12.7213C6.86667 12.7213 6.65 12.6297 6.49167 12.4797C6.34167 12.3213 6.25 12.113 6.25 11.888C6.25 11.7797 6.275 11.6713 6.31667 11.5713C6.35833 11.4713 6.41667 11.3797 6.49167 11.2963C6.8 10.988 7.35833 10.988 7.675 11.2963C7.825 11.4547 7.91667 11.6713 7.91667 11.888C7.91667 11.938 7.90834 11.9963 7.9 12.0547C7.89167 12.1047 7.875 12.1547 7.85 12.2047C7.83333 12.2547 7.80833 12.3047 7.775 12.3547C7.74167 12.3963 7.70833 12.438 7.675 12.4797C7.51667 12.6297 7.3 12.7213 7.08333 12.7213Z" fill="#49909D"/>
<path d="M10.0001 12.7213C9.89175 12.7213 9.78342 12.6964 9.68342 12.6547C9.57508 12.613 9.49175 12.5547 9.40842 12.4797C9.25842 12.3213 9.16675 12.113 9.16675 11.888C9.16675 11.7797 9.19175 11.6713 9.23342 11.5713C9.27508 11.4713 9.33342 11.3797 9.40842 11.2963C9.49175 11.2213 9.57508 11.163 9.68342 11.1213C9.99175 10.9963 10.3584 11.063 10.5917 11.2963C10.7417 11.4547 10.8334 11.6713 10.8334 11.888C10.8334 11.938 10.8251 11.9963 10.8168 12.0547C10.8084 12.1047 10.7917 12.1547 10.7667 12.2047C10.7501 12.2547 10.7251 12.3047 10.6917 12.3547C10.6667 12.3963 10.6251 12.438 10.5917 12.4797C10.4334 12.6297 10.2167 12.7213 10.0001 12.7213Z" fill="#49909D"/>
<path d="M7.08333 15.638C6.975 15.638 6.86667 15.613 6.76667 15.5714C6.65834 15.5297 6.56667 15.4714 6.49167 15.3964C6.41667 15.3214 6.35833 15.2297 6.31667 15.1214C6.275 15.0214 6.25 14.913 6.25 14.8047C6.25 14.6964 6.275 14.588 6.31667 14.488C6.35833 14.3797 6.41667 14.288 6.49167 14.213C6.56667 14.138 6.65834 14.0797 6.76667 14.038C6.96667 13.9547 7.2 13.9463 7.4 14.038C7.50833 14.0797 7.6 14.138 7.675 14.213C7.75 14.288 7.80833 14.3797 7.85 14.488C7.89166 14.588 7.91667 14.6964 7.91667 14.8047C7.91667 14.913 7.89166 15.0214 7.85 15.1214C7.80833 15.2297 7.75 15.3214 7.675 15.3964C7.6 15.4714 7.50833 15.5297 7.4 15.5714C7.3 15.613 7.19167 15.638 7.08333 15.638Z" fill="#49909D"/>
<path d="M17.0834 8.83797H2.91675C2.57508 8.83797 2.29175 8.55463 2.29175 8.21297C2.29175 7.8713 2.57508 7.58797 2.91675 7.58797H17.0834C17.4251 7.58797 17.7084 7.8713 17.7084 8.21297C17.7084 8.55463 17.4251 8.83797 17.0834 8.83797Z" fill="#49909D"/>
<path d="M15.0001 20.4297C14.0251 20.4297 13.1001 20.0797 12.3918 19.438C12.0918 19.188 11.8251 18.8713 11.6084 18.5047C11.2417 17.9047 11.0417 17.1963 11.0417 16.4713C11.0417 14.288 12.8167 12.513 15.0001 12.513C16.1334 12.513 17.2167 13.0047 17.9667 13.8547C18.6084 14.588 18.9584 15.513 18.9584 16.4713C18.9584 17.1963 18.7584 17.9047 18.3834 18.513C17.6834 19.6963 16.3834 20.4297 15.0001 20.4297ZM15.0001 13.763C13.5084 13.763 12.2917 14.9797 12.2917 16.4713C12.2917 16.963 12.4251 17.4463 12.6834 17.863C12.8251 18.113 13.0084 18.3213 13.2084 18.4963C13.7084 18.9463 14.3334 19.1797 15.0001 19.1797C15.9584 19.1797 16.8251 18.688 17.3167 17.8713C17.5751 17.4463 17.7084 16.9713 17.7084 16.4713C17.7084 15.8213 17.4668 15.188 17.0334 14.6797C16.5168 14.0963 15.7751 13.763 15.0001 13.763Z" fill="#49909D"/>
<path d="M14.5248 17.9213C14.3665 17.9213 14.2082 17.863 14.0832 17.738L13.2582 16.913C13.0165 16.6713 13.0165 16.2713 13.2582 16.0296C13.4998 15.788 13.8998 15.788 14.1415 16.0296L14.5415 16.4297L15.8748 15.1963C16.1248 14.963 16.5248 14.9797 16.7582 15.2297C16.9915 15.4797 16.9748 15.8797 16.7248 16.113L14.9498 17.7547C14.8248 17.863 14.6748 17.9213 14.5248 17.9213Z" fill="#49909D"/>
<path d="M12.8083 19.5963H6.66667C3.625 19.5963 1.875 17.8463 1.875 14.8047V7.72134C1.875 4.67967 3.625 2.92967 6.66667 2.92967H13.3333C16.375 2.92967 18.125 4.67967 18.125 7.72134V14.2713C18.125 14.5297 17.9667 14.763 17.7167 14.8547C17.475 14.9463 17.2 14.8797 17.025 14.6797C16.5083 14.0963 15.7667 13.763 14.9917 13.763C13.5 13.763 12.2833 14.9797 12.2833 16.4713C12.2833 16.963 12.4167 17.4464 12.675 17.863C12.8167 18.113 13 18.3213 13.2 18.4963C13.4 18.663 13.475 18.938 13.3833 19.188C13.3083 19.4297 13.075 19.5963 12.8083 19.5963ZM6.66667 4.17967C4.28333 4.17967 3.125 5.33801 3.125 7.72134V14.8047C3.125 17.188 4.28333 18.3463 6.66667 18.3463H11.5167C11.2083 17.7797 11.0417 17.138 11.0417 16.4713C11.0417 14.288 12.8167 12.513 15 12.513C15.6583 12.513 16.3083 12.6797 16.875 12.988V7.72134C16.875 5.33801 15.7167 4.17967 13.3333 4.17967H6.66667Z" fill="#49909D"/>
</svg>
