<svg width="18" height="19" viewBox="0 0 18 19" fill="none" xmlns="http://www.w3.org/2000/svg">
<path d="M13.0875 17.5625C12.24 17.5625 11.3475 17.36 10.425 16.97C9.525 16.5875 8.6175 16.0625 7.7325 15.425C6.855 14.78 6.0075 14.06 5.205 13.2725C4.41 12.47 3.69 11.6225 3.0525 10.7525C2.4075 9.8525 1.89 8.9525 1.5225 8.0825C1.1325 7.1525 0.9375 6.2525 0.9375 5.405C0.9375 4.82 1.0425 4.265 1.245 3.7475C1.455 3.215 1.7925 2.72 2.25 2.2925C2.8275 1.7225 3.4875 1.4375 4.1925 1.4375C4.485 1.4375 4.785 1.505 5.04 1.625C5.3325 1.76 5.58 1.9625 5.76 2.2325L7.5 4.685C7.6575 4.9025 7.7775 5.1125 7.86 5.3225C7.9575 5.5475 8.01 5.7725 8.01 5.99C8.01 6.275 7.9275 6.5525 7.77 6.815C7.6575 7.0175 7.485 7.235 7.2675 7.4525L6.7575 7.985C6.765 8.0075 6.7725 8.0225 6.78 8.0375C6.87 8.195 7.05 8.465 7.395 8.87C7.7625 9.29 8.1075 9.6725 8.4525 10.025C8.895 10.46 9.2625 10.805 9.6075 11.09C10.035 11.45 10.3125 11.63 10.4775 11.7125L10.4625 11.75L11.01 11.21C11.2425 10.9775 11.4675 10.805 11.685 10.6925C12.0975 10.4375 12.6225 10.3925 13.1475 10.61C13.3425 10.6925 13.5525 10.805 13.7775 10.9625L16.2675 12.7325C16.545 12.92 16.7475 13.16 16.8675 13.445C16.98 13.73 17.0325 13.9925 17.0325 14.255C17.0325 14.615 16.95 14.975 16.7925 15.3125C16.635 15.65 16.44 15.9425 16.1925 16.2125C15.765 16.685 15.3 17.0225 14.76 17.24C14.2425 17.45 13.68 17.5625 13.0875 17.5625ZM4.1925 2.5625C3.78 2.5625 3.3975 2.7425 3.03 3.1025C2.685 3.425 2.445 3.7775 2.295 4.16C2.1375 4.55 2.0625 4.9625 2.0625 5.405C2.0625 6.1025 2.2275 6.86 2.5575 7.64C2.895 8.435 3.3675 9.26 3.9675 10.085C4.5675 10.91 5.25 11.7125 6 12.47C6.75 13.2125 7.56 13.9025 8.3925 14.51C9.2025 15.1025 10.035 15.5825 10.86 15.9275C12.1425 16.475 13.3425 16.6025 14.3325 16.19C14.715 16.0325 15.0525 15.7925 15.36 15.4475C15.5325 15.26 15.6675 15.0575 15.78 14.8175C15.87 14.63 15.915 14.435 15.915 14.24C15.915 14.12 15.8925 14 15.8325 13.865C15.81 13.82 15.765 13.7375 15.6225 13.64L13.1325 11.87C12.9825 11.765 12.8475 11.69 12.72 11.6375C12.555 11.57 12.4875 11.5025 12.2325 11.66C12.0825 11.735 11.9475 11.8475 11.7975 11.9975L11.2275 12.56C10.935 12.845 10.485 12.9125 10.14 12.785L9.9375 12.695C9.63 12.53 9.27 12.275 8.8725 11.9375C8.5125 11.63 8.1225 11.27 7.65 10.805C7.2825 10.43 6.915 10.0325 6.5325 9.59C6.18 9.1775 5.925 8.825 5.7675 8.5325L5.6775 8.3075C5.6325 8.135 5.6175 8.0375 5.6175 7.9325C5.6175 7.6625 5.715 7.4225 5.9025 7.235L6.465 6.65C6.615 6.5 6.7275 6.3575 6.8025 6.23C6.8625 6.1325 6.885 6.05 6.885 5.975C6.885 5.915 6.8625 5.825 6.825 5.735C6.7725 5.615 6.69 5.48 6.585 5.3375L4.845 2.8775C4.77 2.7725 4.68 2.6975 4.5675 2.645C4.4475 2.5925 4.32 2.5625 4.1925 2.5625ZM10.4625 11.7575L10.3425 12.2675L10.545 11.7425C10.5075 11.735 10.4775 11.7425 10.4625 11.7575Z" fill="#51595A"/>
</svg>
