<svg width="38" height="39" viewBox="0 0 38 39" fill="none" xmlns="http://www.w3.org/2000/svg">
<rect x="1.65217" y="2.15217" width="34.6957" height="34.6957" rx="17.3478" fill="#F4F5F8"/>
<rect x="1.65217" y="2.15217" width="34.6957" height="34.6957" rx="17.3478" stroke="#FEFCFE" stroke-width="3.30435"/>
<path d="M15.5066 26.1666H22.4933C24.3333 26.1666 25.0666 25.0399 25.1533 23.6666L25.4999 18.1599C25.5933 16.7199 24.4466 15.4999 22.9999 15.4999C22.5933 15.4999 22.2199 15.2666 22.0333 14.9066L21.5533 13.9399C21.2466 13.3333 20.4466 12.8333 19.7666 12.8333H18.2399C17.5533 12.8333 16.7533 13.3333 16.4466 13.9399L15.9666 14.9066C15.7799 15.2666 15.4066 15.4999 14.9999 15.4999C13.5533 15.4999 12.4066 16.7199 12.4999 18.1599L12.8466 23.6666C12.9266 25.0399 13.6666 26.1666 15.5066 26.1666Z" stroke="#626D6F" stroke-width="1.23913" stroke-linecap="round" stroke-linejoin="round"/>
<path d="M18 16.8333H20" stroke="#626D6F" stroke-width="1.23913" stroke-linecap="round" stroke-linejoin="round"/>
<path d="M19.0002 23.5001C20.1935 23.5001 21.1668 22.5267 21.1668 21.3334C21.1668 20.1401 20.1935 19.1667 19.0002 19.1667C17.8068 19.1667 16.8335 20.1401 16.8335 21.3334C16.8335 22.5267 17.8068 23.5001 19.0002 23.5001Z" stroke="#626D6F" stroke-width="1.23913" stroke-linecap="round" stroke-linejoin="round"/>
</svg>
