<svg width="20" height="21" viewBox="0 0 20 21" fill="none" xmlns="http://www.w3.org/2000/svg">
<path d="M9.375 15.3478H7.5C6.58333 15.3478 5.83333 16.0978 5.83333 17.0144V17.2228H5C4.65833 17.2228 4.375 17.5061 4.375 17.8478C4.375 18.1894 4.65833 18.4728 5 18.4728H15C15.3417 18.4728 15.625 18.1894 15.625 17.8478C15.625 17.5061 15.3417 17.2228 15 17.2228H14.1667V17.0144C14.1667 16.0978 13.4167 15.3478 12.5 15.3478H10.625V13.4394C10.4167 13.4644 10.2083 13.4728 10 13.4728C9.79167 13.4728 9.58333 13.4644 9.375 13.4394V15.3478Z" fill="#F1C34D"/>
<path d="M15.3999 9.83943C15.9499 9.63109 16.4332 9.28942 16.8166 8.90609C17.5916 8.04776 18.0999 7.02276 18.0999 5.82276C18.0999 4.62276 17.1582 3.68109 15.9582 3.68109H15.4916C14.9499 2.57276 13.8166 1.80609 12.4999 1.80609H7.4999C6.18324 1.80609 5.0499 2.57276 4.50824 3.68109H4.04157C2.84157 3.68109 1.8999 4.62276 1.8999 5.82276C1.8999 7.02276 2.40824 8.04776 3.18324 8.90609C3.56657 9.28942 4.0499 9.63109 4.5999 9.83943C5.46657 11.9728 7.5499 13.4728 9.9999 13.4728C12.4499 13.4728 14.5332 11.9728 15.3999 9.83943ZM12.3666 7.18109L11.8499 7.81442C11.7666 7.90609 11.7082 8.08942 11.7166 8.21442L11.7666 9.03109C11.7999 9.53109 11.4416 9.78942 10.9749 9.60609L10.2166 9.30609C10.0999 9.26442 9.8999 9.26442 9.78324 9.30609L9.0249 9.60609C8.55824 9.78942 8.1999 9.53109 8.23324 9.03109L8.28324 8.21442C8.29157 8.08942 8.23324 7.90609 8.1499 7.81442L7.63324 7.18109C7.30824 6.79776 7.4499 6.37276 7.93324 6.24776L8.7249 6.04776C8.8499 6.01442 8.9999 5.89776 9.06657 5.78942L9.50824 5.10609C9.78324 4.68109 10.2166 4.68109 10.4916 5.10609L10.9332 5.78942C10.9999 5.89776 11.1499 6.01442 11.2749 6.04776L12.0666 6.24776C12.5499 6.37276 12.6916 6.79776 12.3666 7.18109Z" fill="#F1C34D"/>
</svg>
