<svg width="56" height="57" viewBox="0 0 56 57" fill="none" xmlns="http://www.w3.org/2000/svg">
<path d="M21.0002 23.8333C23.5775 23.8333 25.6668 21.744 25.6668 19.1667C25.6668 16.5893 23.5775 14.5 21.0002 14.5C18.4228 14.5 16.3335 16.5893 16.3335 19.1667C16.3335 21.744 18.4228 23.8333 21.0002 23.8333Z" stroke="#626D6F" stroke-width="3.5" stroke-linecap="round" stroke-linejoin="round"/>
<path d="M30.3332 5.16675H20.9998C9.33317 5.16675 4.6665 9.83342 4.6665 21.5001V35.5001C4.6665 47.1668 9.33317 51.8334 20.9998 51.8334H34.9998C46.6665 51.8334 51.3332 47.1668 51.3332 35.5001V23.8334" stroke="#626D6F" stroke-width="3.5" stroke-linecap="round" stroke-linejoin="round"/>
<path d="M36.75 12.1667H49.5833" stroke="#626D6F" stroke-width="3.5" stroke-linecap="round"/>
<path d="M43.1665 18.5833V5.75" stroke="#626D6F" stroke-width="3.5" stroke-linecap="round"/>
<path d="M6.22998 44.7169L17.7333 36.9936C19.5766 35.7569 22.2366 35.8969 23.8933 37.3202L24.6633 37.9969C26.4833 39.5602 29.4233 39.5602 31.2433 37.9969L40.95 29.6669C42.77 28.1036 45.71 28.1036 47.53 29.6669L51.3333 32.9336" stroke="#626D6F" stroke-width="3.5" stroke-linecap="round" stroke-linejoin="round"/>
</svg>
