<svg width="20" height="20" viewBox="0 0 20 20" fill="none" xmlns="http://www.w3.org/2000/svg">
<path d="M13.75 15.2083H12.4917C12.15 15.2083 11.8667 14.925 11.8667 14.5833C11.8667 14.2417 12.15 13.9583 12.4917 13.9583H13.75C15.9334 13.9583 17.7084 12.1833 17.7084 10C17.7084 7.81667 15.9334 6.04167 13.75 6.04167H12.5C12.1584 6.04167 11.875 5.75834 11.875 5.41667C11.875 5.07501 12.15 4.79167 12.5 4.79167H13.75C16.625 4.79167 18.9584 7.125 18.9584 10C18.9584 12.875 16.625 15.2083 13.75 15.2083Z" fill="#1F58EA"/>
<path d="M7.50008 15.2083H6.25008C3.37508 15.2083 1.04175 12.875 1.04175 10C1.04175 7.125 3.37508 4.79167 6.25008 4.79167H7.50008C7.84175 4.79167 8.12508 5.07501 8.12508 5.41667C8.12508 5.75834 7.84175 6.04167 7.50008 6.04167H6.25008C4.06675 6.04167 2.29175 7.81667 2.29175 10C2.29175 12.1833 4.06675 13.9583 6.25008 13.9583H7.50008C7.84175 13.9583 8.12508 14.2417 8.12508 14.5833C8.12508 14.925 7.84175 15.2083 7.50008 15.2083Z" fill="#1F58EA"/>
<path d="M13.3334 10.625H6.66675C6.32508 10.625 6.04175 10.3417 6.04175 10C6.04175 9.65833 6.32508 9.375 6.66675 9.375H13.3334C13.6751 9.375 13.9584 9.65833 13.9584 10C13.9584 10.3417 13.6751 10.625 13.3334 10.625Z" fill="#1F58EA"/>
</svg>
