<svg width="19" height="18" viewBox="0 0 19 18" fill="none" xmlns="http://www.w3.org/2000/svg">
<path d="M9.66715 10.6275C8.06965 10.6275 6.76465 9.32999 6.76465 7.72499C6.76465 6.11999 8.06965 4.82999 9.66715 4.82999C11.2646 4.82999 12.5696 6.12749 12.5696 7.73249C12.5696 9.33749 11.2646 10.6275 9.66715 10.6275ZM9.66715 5.95499C8.69215 5.95499 7.88965 6.74999 7.88965 7.73249C7.88965 8.71499 8.68465 9.50999 9.66715 9.50999C10.6496 9.50999 11.4446 8.71499 11.4446 7.73249C11.4446 6.74999 10.6421 5.95499 9.66715 5.95499Z" fill="#8D9A9B"/>
<path d="M9.66676 17.07C8.55676 17.07 7.43926 16.65 6.56926 15.8175C4.35676 13.6875 1.91176 10.29 2.83426 6.2475C3.66676 2.58 6.86926 0.9375 9.66676 0.9375C9.66676 0.9375 9.66676 0.9375 9.67426 0.9375C12.4718 0.9375 15.6743 2.58 16.5068 6.255C17.4218 10.2975 14.9768 13.6875 12.7643 15.8175C11.8943 16.65 10.7768 17.07 9.66676 17.07ZM9.66676 2.0625C7.48426 2.0625 4.67926 3.225 3.93676 6.495C3.12676 10.0275 5.34676 13.0725 7.35676 15C8.65426 16.2525 10.6868 16.2525 11.9843 15C13.9868 13.0725 16.2068 10.0275 15.4118 6.495C14.6618 3.225 11.8493 2.0625 9.66676 2.0625Z" fill="#8D9A9B"/>
</svg>
