<svg width="20" height="21" viewBox="0 0 20 21" fill="none" xmlns="http://www.w3.org/2000/svg">
<path d="M9.9999 12.4463C8.2249 12.4463 6.7749 11.0047 6.7749 9.22134C6.7749 7.438 8.2249 6.00467 9.9999 6.00467C11.7749 6.00467 13.2249 7.44634 13.2249 9.22967C13.2249 11.013 11.7749 12.4463 9.9999 12.4463ZM9.9999 7.25467C8.91657 7.25467 8.0249 8.138 8.0249 9.22967C8.0249 10.3213 8.90824 11.2047 9.9999 11.2047C11.0916 11.2047 11.9749 10.3213 11.9749 9.22967C11.9749 8.138 11.0832 7.25467 9.9999 7.25467Z" fill="#49909D"/>
<path d="M9.9999 19.6047C8.76657 19.6047 7.5249 19.138 6.55824 18.213C4.0999 15.8463 1.38324 12.0713 2.40824 7.57966C3.33324 3.50466 6.89157 1.67966 9.9999 1.67966C9.9999 1.67966 9.9999 1.67966 10.0082 1.67966C13.1166 1.67966 16.6749 3.50466 17.5999 7.58799C18.6166 12.0797 15.8999 15.8463 13.4416 18.213C12.4749 19.138 11.2332 19.6047 9.9999 19.6047ZM9.9999 2.92966C7.5749 2.92966 4.45824 4.22132 3.63324 7.85466C2.73324 11.7797 5.1999 15.163 7.43324 17.3047C8.8749 18.6963 11.1332 18.6963 12.5749 17.3047C14.7999 15.163 17.2666 11.7797 16.3832 7.85466C15.5499 4.22132 12.4249 2.92966 9.9999 2.92966Z" fill="#49909D"/>
</svg>
