<svg width="24" height="25" viewBox="0 0 24 25" fill="none" xmlns="http://www.w3.org/2000/svg">
<path d="M17.29 4.77798L17.22 8.56798C17.21 9.08798 17.54 9.77798 17.96 10.088L20.44 11.968C22.03 13.168 21.77 14.638 19.87 15.238L16.64 16.248C16.1 16.418 15.53 17.008 15.39 17.558L14.62 20.498C14.01 22.818 12.49 23.048 11.23 21.008L9.47003 18.158C9.15003 17.638 8.39003 17.248 7.79003 17.278L4.45003 17.448C2.06003 17.568 1.38003 16.188 2.94003 14.368L4.92003 12.068C5.29003 11.638 5.46003 10.838 5.29003 10.298L4.27003 7.05798C3.68003 5.15798 4.74003 4.10798 6.63003 4.72798L9.58003 5.69798C10.08 5.85798 10.83 5.74798 11.25 5.43798L14.33 3.21798C16 2.02798 17.33 2.72798 17.29 4.77798Z" fill="#8D9A9B"/>
<path d="M21.4398 21.108L18.4098 18.078C18.1198 17.788 17.6398 17.788 17.3498 18.078C17.0598 18.368 17.0598 18.848 17.3498 19.138L20.3798 22.168C20.5298 22.318 20.7198 22.388 20.9098 22.388C21.0998 22.388 21.2898 22.318 21.4398 22.168C21.7298 21.878 21.7298 21.398 21.4398 21.108Z" fill="#8D9A9B"/>
</svg>
