<svg width="24" height="25" viewBox="0 0 24 25" fill="none" xmlns="http://www.w3.org/2000/svg">
<path d="M21.2498 19.108L19.5998 19.498C19.2298 19.588 18.9398 19.868 18.8598 20.238L18.5098 21.708C18.3198 22.508 17.2998 22.758 16.7698 22.128L13.7798 18.688C13.5398 18.408 13.6698 17.968 14.0298 17.878C15.7998 17.448 17.3898 16.458 18.5598 15.048C18.7498 14.818 19.0898 14.788 19.2998 14.998L21.5198 17.218C22.2798 17.978 22.0098 18.928 21.2498 19.108Z" fill="#856ECA"/>
<path d="M2.70016 19.108L4.35016 19.498C4.72016 19.588 5.01016 19.868 5.09016 20.238L5.44016 21.708C5.63016 22.508 6.65016 22.758 7.18016 22.128L10.1702 18.688C10.4102 18.408 10.2802 17.968 9.92016 17.878C8.15016 17.448 6.56016 16.458 5.39016 15.048C5.20016 14.818 4.86016 14.788 4.65016 14.998L2.43016 17.218C1.67016 17.978 1.94016 18.928 2.70016 19.108Z" fill="#856ECA"/>
<path d="M12 2.638C8.13 2.638 5 5.768 5 9.638C5 11.088 5.43 12.418 6.17 13.528C7.25 15.128 8.96 16.258 10.95 16.548C11.29 16.608 11.64 16.638 12 16.638C12.36 16.638 12.71 16.608 13.05 16.548C15.04 16.258 16.75 15.128 17.83 13.528C18.57 12.418 19 11.088 19 9.638C19 5.768 15.87 2.638 12 2.638ZM15.06 9.418L14.23 10.248C14.09 10.388 14.01 10.658 14.06 10.858L14.3 11.888C14.49 12.698 14.06 13.018 13.34 12.588L12.34 11.998C12.16 11.888 11.86 11.888 11.68 11.998L10.68 12.588C9.96 13.008 9.53 12.698 9.72 11.888L9.96 10.858C10 10.668 9.93 10.388 9.79 10.248L8.94 9.418C8.45 8.928 8.61 8.438 9.29 8.328L10.36 8.148C10.54 8.118 10.75 7.958 10.83 7.798L11.42 6.618C11.74 5.978 12.26 5.978 12.58 6.618L13.17 7.798C13.25 7.958 13.46 8.118 13.65 8.148L14.72 8.328C15.39 8.438 15.55 8.928 15.06 9.418Z" fill="#856ECA"/>
</svg>
