<svg width="20" height="21" viewBox="0 0 20 21" fill="none" xmlns="http://www.w3.org/2000/svg">
<path d="M6.66675 5.42957C6.32508 5.42957 6.04175 5.14623 6.04175 4.80457V2.30457C6.04175 1.9629 6.32508 1.67957 6.66675 1.67957C7.00841 1.67957 7.29175 1.9629 7.29175 2.30457V4.80457C7.29175 5.14623 7.00841 5.42957 6.66675 5.42957Z" fill="#49909D"/>
<path d="M13.3333 5.42957C12.9916 5.42957 12.7083 5.14623 12.7083 4.80457V2.30457C12.7083 1.9629 12.9916 1.67957 13.3333 1.67957C13.6749 1.67957 13.9583 1.9629 13.9583 2.30457V4.80457C13.9583 5.14623 13.6749 5.42957 13.3333 5.42957Z" fill="#49909D"/>
<path d="M12.4999 12.0963H5.83325C5.49159 12.0963 5.20825 11.813 5.20825 11.4713C5.20825 11.1296 5.49159 10.8463 5.83325 10.8463H12.4999C12.8416 10.8463 13.1249 11.1296 13.1249 11.4713C13.1249 11.813 12.8416 12.0963 12.4999 12.0963Z" fill="#49909D"/>
<path d="M9.99992 15.4296H5.83325C5.49159 15.4296 5.20825 15.1462 5.20825 14.8046C5.20825 14.4629 5.49159 14.1796 5.83325 14.1796H9.99992C10.3416 14.1796 10.6249 14.4629 10.6249 14.8046C10.6249 15.1462 10.3416 15.4296 9.99992 15.4296Z" fill="#49909D"/>
<path d="M12.5 19.5962H7.5C2.81667 19.5962 1.875 17.3879 1.875 13.8212V8.67957C1.875 4.72957 3.20833 3.12123 6.63333 2.92957H13.3333C13.3417 2.92957 13.3583 2.92957 13.3667 2.92957C16.7917 3.12123 18.125 4.72957 18.125 8.67957V13.8212C18.125 17.3879 17.1833 19.5962 12.5 19.5962ZM6.66667 4.17957C4.33333 4.3129 3.125 5.04623 3.125 8.67957V13.8212C3.125 17.0129 3.73333 18.3462 7.5 18.3462H12.5C16.2667 18.3462 16.875 17.0129 16.875 13.8212V8.67957C16.875 5.05457 15.675 4.3129 13.3167 4.17957H6.66667Z" fill="#49909D"/>
</svg>
