<svg width="16" height="17" viewBox="0 0 16 17" fill="none" xmlns="http://www.w3.org/2000/svg">
<path d="M5.71318 10.8194C5.58651 10.8194 5.45984 10.7727 5.35984 10.6727C5.16651 10.4794 5.16651 10.1594 5.35984 9.96606L9.7265 5.59941C9.91984 5.40607 10.2398 5.40607 10.4332 5.59941C10.6265 5.79274 10.6265 6.11274 10.4332 6.30607L6.06651 10.6727C5.96651 10.7727 5.83984 10.8194 5.71318 10.8194Z" fill="#49909D"/>
<path d="M5.98676 7.54606C5.26009 7.54606 4.66675 6.95274 4.66675 6.22607C4.66675 5.49941 5.26009 4.90607 5.98676 4.90607C6.71342 4.90607 7.30674 5.49941 7.30674 6.22607C7.30674 6.95274 6.71342 7.54606 5.98676 7.54606ZM5.98676 5.91274C5.81342 5.91274 5.66675 6.05275 5.66675 6.23275C5.66675 6.41275 5.80676 6.55273 5.98676 6.55273C6.16676 6.55273 6.30674 6.41275 6.30674 6.23275C6.30674 6.05275 6.16009 5.91274 5.98676 5.91274Z" fill="#49909D"/>
<path d="M10.3466 11.3661C9.61993 11.3661 9.02661 10.7727 9.02661 10.0461C9.02661 9.31939 9.61993 8.72607 10.3466 8.72607C11.0733 8.72607 11.6666 9.31939 11.6666 10.0461C11.6666 10.7727 11.0733 11.3661 10.3466 11.3661ZM10.3466 9.73275C10.1733 9.73275 10.0266 9.87273 10.0266 10.0527C10.0266 10.2327 10.1666 10.3727 10.3466 10.3727C10.5266 10.3727 10.6666 10.2327 10.6666 10.0527C10.6666 9.87273 10.5266 9.73275 10.3466 9.73275Z" fill="#49909D"/>
<path d="M7.99992 15.3061C4.04659 15.3061 0.833252 12.0927 0.833252 8.13938C0.833252 4.18605 4.04659 0.972717 7.99992 0.972717C11.9533 0.972717 15.1666 4.18605 15.1666 8.13938C15.1666 12.0927 11.9533 15.3061 7.99992 15.3061ZM7.99992 1.97272C4.59992 1.97272 1.83325 4.73938 1.83325 8.13938C1.83325 11.5394 4.59992 14.3061 7.99992 14.3061C11.3999 14.3061 14.1666 11.5394 14.1666 8.13938C14.1666 4.73938 11.3999 1.97272 7.99992 1.97272Z" fill="#49909D"/>
</svg>
