<svg width="18" height="19" viewBox="0 0 18 19" fill="none" xmlns="http://www.w3.org/2000/svg">
<path d="M12.75 16.4375H5.25C2.5125 16.4375 0.9375 14.8625 0.9375 12.125V6.875C0.9375 4.1375 2.5125 2.5625 5.25 2.5625H12.75C15.4875 2.5625 17.0625 4.1375 17.0625 6.875V12.125C17.0625 14.8625 15.4875 16.4375 12.75 16.4375ZM5.25 3.6875C3.105 3.6875 2.0625 4.73 2.0625 6.875V12.125C2.0625 14.27 3.105 15.3125 5.25 15.3125H12.75C14.895 15.3125 15.9375 14.27 15.9375 12.125V6.875C15.9375 4.73 14.895 3.6875 12.75 3.6875H5.25Z" fill="#51595A"/>
<path d="M8.99983 10.1525C8.36983 10.1525 7.73234 9.95748 7.24484 9.55998L4.89733 7.68498C4.65733 7.48998 4.61234 7.13748 4.80734 6.89748C5.00234 6.65748 5.35484 6.61248 5.59484 6.80748L7.94233 8.68248C8.51233 9.13998 9.47983 9.13998 10.0498 8.68248L12.3973 6.80748C12.6373 6.61248 12.9973 6.64998 13.1848 6.89748C13.3798 7.13748 13.3423 7.49748 13.0948 7.68498L10.7473 9.55998C10.2673 9.95748 9.62983 10.1525 8.99983 10.1525Z" fill="#51595A"/>
</svg>
