<svg width="94" height="94" viewBox="0 0 94 94" fill="none" xmlns="http://www.w3.org/2000/svg">
<path d="M35.2502 7.83325C24.9885 7.83325 16.646 16.1758 16.646 26.4374C16.646 36.5033 24.5185 44.6499 34.7802 45.0024C35.0935 44.9633 35.4068 44.9633 35.6418 45.0024C35.7202 45.0024 35.7593 45.0024 35.8377 45.0024C35.8768 45.0024 35.8768 45.0024 35.916 45.0024C45.9427 44.6499 53.8152 36.5033 53.8543 26.4374C53.8543 16.1758 45.5118 7.83325 35.2502 7.83325Z" fill="#D8DFE0"/>
<path d="M55.1465 55.4208C44.219 48.1358 26.3982 48.1358 15.3923 55.4208C10.4182 58.7499 7.67651 63.2541 7.67651 68.0716C7.67651 72.8891 10.4182 77.3541 15.3532 80.6441C20.8365 84.3258 28.0432 86.1666 35.2498 86.1666C42.4565 86.1666 49.6632 84.3258 55.1465 80.6441C60.0815 77.315 62.8232 72.85 62.8232 67.9933C62.784 63.1758 60.0815 58.7108 55.1465 55.4208Z" fill="#D8DFE0"/>
<path d="M78.2944 28.7484C78.9211 36.3467 73.5161 43.0051 66.0352 43.9059C65.9961 43.9059 65.9961 43.9059 65.9569 43.9059H65.8394C65.6044 43.9059 65.3694 43.9059 65.1736 43.9842C61.3744 44.1801 57.8886 42.9659 55.2644 40.7334C59.2986 37.1301 61.6094 31.7251 61.1394 25.8501C60.8652 22.6776 59.7686 19.7792 58.1236 17.3117C59.6119 16.5676 61.3352 16.0976 63.0977 15.9409C70.7744 15.2751 77.6286 20.9934 78.2944 28.7484Z" fill="#B6C2C4"/>
<path d="M86.1278 64.9776C85.8144 68.7768 83.3861 72.0668 79.3128 74.2993C75.3961 76.4535 70.4611 77.4718 65.5653 77.3543C68.3853 74.8085 70.0303 71.636 70.3436 68.2676C70.7353 63.411 68.4244 58.7501 63.8028 55.0293C61.1786 52.9535 58.1236 51.3085 54.7944 50.0943C63.4503 47.5876 74.3386 49.2718 81.0361 54.6768C84.6394 57.5751 86.4803 61.2176 86.1278 64.9776Z" fill="#B6C2C4"/>
</svg>
