<svg width="49" height="49" viewBox="0 0 49 49" fill="none" xmlns="http://www.w3.org/2000/svg">
<path d="M12.25 42.875V38.7917C12.25 36.6257 13.1104 34.5485 14.642 33.017C16.1735 31.4854 18.2507 30.625 20.4167 30.625H21.4375M16.3333 14.2917C16.3333 16.4576 17.1937 18.5348 18.7253 20.0664C20.2568 21.5979 22.3341 22.4583 24.5 22.4583C26.6659 22.4583 28.7432 21.5979 30.2747 20.0664C31.8063 18.5348 32.6667 16.4576 32.6667 14.2917C32.6667 12.1257 31.8063 10.0485 30.2747 8.51696C28.7432 6.98541 26.6659 6.125 24.5 6.125C22.3341 6.125 20.2568 6.98541 18.7253 8.51696C17.1937 10.0485 16.3333 12.1257 16.3333 14.2917ZM36.3417 42.5013L31.9072 44.8247C31.7756 44.8932 31.6275 44.9238 31.4796 44.913C31.3316 44.9023 31.1895 44.8506 31.0693 44.7637C30.949 44.6769 30.8552 44.5584 30.7984 44.4213C30.7415 44.2843 30.7239 44.1341 30.7475 43.9877L31.5948 39.0652L28.0076 35.5801C27.9005 35.4766 27.8247 35.345 27.7888 35.2005C27.7529 35.056 27.7584 34.9043 27.8046 34.7627C27.8508 34.6211 27.9358 34.4954 28.0501 34.3998C28.1643 34.3043 28.3031 34.2428 28.4506 34.2224L33.4078 33.5037L35.625 29.0263C35.6914 28.893 35.7936 28.7808 35.9202 28.7023C36.0468 28.6239 36.1927 28.5823 36.3417 28.5823C36.4906 28.5823 36.6366 28.6239 36.7632 28.7023C36.8898 28.7808 36.992 28.893 37.0583 29.0263L39.2755 33.5037L44.2327 34.2224C44.3798 34.2435 44.518 34.3054 44.6318 34.401C44.7455 34.4967 44.8302 34.6222 44.8763 34.7635C44.9224 34.9048 44.928 35.0561 44.8926 35.2004C44.8572 35.3447 44.782 35.4762 44.6758 35.5801L41.0885 39.0652L41.9338 43.9856C41.9592 44.1323 41.9429 44.2832 41.8868 44.4212C41.8307 44.5591 41.7371 44.6786 41.6165 44.766C41.4959 44.8534 41.3533 44.9052 41.2047 44.9156C41.0562 44.926 40.9077 44.8945 40.7762 44.8247L36.3417 42.5013Z" stroke="#25292A" stroke-width="2.45192" stroke-linecap="round" stroke-linejoin="round"/>
</svg>
