<svg width="16" height="17" viewBox="0 0 16 17" fill="none" xmlns="http://www.w3.org/2000/svg">
<path d="M11.2199 10.5661C11.6666 10.2727 12.2532 10.5927 12.2532 11.1261V11.9861C12.2532 12.8327 11.5932 13.7394 10.7999 14.0061L8.67325 14.7127C8.29992 14.8394 7.69325 14.8394 7.32658 14.7127L5.19992 14.0061C4.39992 13.7394 3.74658 12.8327 3.74658 11.9861V11.1194C3.74658 10.5927 4.33325 10.2727 4.77325 10.5594L6.14658 11.4527C6.67325 11.8061 7.33992 11.9794 8.00658 11.9794C8.67325 11.9794 9.33992 11.8061 9.86658 11.4527L11.2199 10.5661Z" fill="#F1C34D"/>
<path d="M13.32 4.44607L9.32668 1.82607C8.60668 1.35274 7.42001 1.35274 6.70001 1.82607L2.68668 4.44607C1.40001 5.2794 1.40001 7.16607 2.68668 8.00607L3.75335 8.6994L6.70001 10.6194C7.42001 11.0927 8.60668 11.0927 9.32668 10.6194L12.2533 8.6994L13.1667 8.0994V10.1394C13.1667 10.4127 13.3933 10.6394 13.6667 10.6394C13.94 10.6394 14.1667 10.4127 14.1667 10.1394V6.8594C14.4333 5.9994 14.16 4.9994 13.32 4.44607Z" fill="#F1C34D"/>
</svg>
