<svg width="84" height="84" viewBox="0 0 84 84" fill="none" xmlns="http://www.w3.org/2000/svg">
<path d="M41.9998 6.99976C22.7148 6.99976 6.99982 22.7148 6.99982 41.9998C6.99982 61.2847 22.7148 76.9997 41.9998 76.9997C61.2848 76.9997 76.9998 61.2847 76.9998 41.9998C76.9998 22.7148 61.2848 6.99976 41.9998 6.99976ZM58.7298 33.9498L38.8848 53.7948C38.3948 54.2847 37.7298 54.5648 37.0298 54.5648C36.3298 54.5648 35.6648 54.2847 35.1748 53.7948L25.2698 43.8898C24.2548 42.8748 24.2548 41.1947 25.2698 40.1797C26.2848 39.1647 27.9648 39.1647 28.9798 40.1797L37.0298 48.2297L55.0198 30.2398C56.0348 29.2248 57.7148 29.2248 58.7298 30.2398C59.7448 31.2548 59.7448 32.8998 58.7298 33.9498Z" fill="#49909D"/>
</svg>
