<svg width="50" height="49" viewBox="0 0 50 49" fill="none" xmlns="http://www.w3.org/2000/svg">
<g clip-path="url(#clip0_797_32213)">
<path d="M36.15 6.44039C33.6327 12.7173 27.323 21.25 22.0432 25.4837L18.823 28.0664C18.4144 28.3606 18.0057 28.6221 17.548 28.8019C17.548 28.5077 17.5317 28.1808 17.4827 27.8702C17.3029 26.4971 16.6817 25.2221 15.5865 24.1269C14.475 23.0154 13.1182 22.3615 11.7288 22.1817C11.4019 22.1654 11.075 22.1327 10.748 22.1654C10.9279 21.6587 11.2057 21.1846 11.549 20.7923L14.099 17.5721C18.3163 12.2923 26.8817 5.95001 33.1423 3.44904C34.1067 3.08943 35.0384 3.35097 35.6269 3.95578C36.248 4.56058 36.5423 5.49231 36.15 6.44039Z" stroke="#25292A" stroke-width="2.45192" stroke-linecap="round" stroke-linejoin="round"/>
<path d="M17.5493 28.8019C17.5493 30.6 16.8628 32.3163 15.5714 33.624C14.5743 34.6211 13.2176 35.3077 11.5993 35.5202L7.57816 35.9615C5.38778 36.2067 3.50797 34.3433 3.76951 32.1202L4.21086 28.099C4.60316 24.5192 7.59451 22.2308 10.7657 22.1654C11.0926 22.149 11.4359 22.1654 11.7464 22.1817C13.1359 22.3615 14.4926 22.999 15.6041 24.1269C16.6993 25.2221 17.3205 26.4971 17.5003 27.8702C17.5166 28.1808 17.5493 28.4913 17.5493 28.8019Z" stroke="#25292A" stroke-width="2.45192" stroke-linecap="round" stroke-linejoin="round"/>
<path d="M23.7767 23.6529C23.7767 19.3865 20.3113 15.9211 16.0449 15.9211" stroke="#25292A" stroke-width="2.45192" stroke-linecap="round" stroke-linejoin="round"/>
<path d="M33.3878 20.8087L34.5974 22.0019C37.033 24.4375 37.033 26.8404 34.5974 29.276L29.7589 34.1144C27.356 36.5173 24.9205 36.5173 22.5176 34.1144" stroke="#25292A" stroke-width="2.45192" stroke-linecap="round"/>
<path d="M5.58439 17.1798C3.18151 14.7442 3.18151 12.3413 5.58439 9.90576L10.4229 5.0673C12.8257 2.66442 15.2613 2.66442 17.6642 5.0673L18.8738 6.27692" stroke="#25292A" stroke-width="2.45192" stroke-linecap="round"/>
<path d="M18.8889 6.29327L12.8408 12.3414" stroke="#25292A" stroke-width="2.45192" stroke-linecap="round"/>
<path d="M33.3883 20.8087L28.5498 25.6308" stroke="#25292A" stroke-width="2.45192" stroke-linecap="round"/>
</g>
<defs>
<clipPath id="clip0_797_32213">
<rect width="39.2308" height="39.2308" fill="white" transform="translate(0.5)"/>
</clipPath>
</defs>
</svg>
