<svg width="42" height="51" viewBox="0 0 42 51" fill="none" xmlns="http://www.w3.org/2000/svg">
<path d="M1.05596 44.8696C1.4405 45.2896 2.03693 45.4426 2.57632 45.2596L8.72198 43.1728L11.2913 49.1327C11.5173 49.6571 12.0327 49.9977 12.6037 50H12.6096C13.1783 50 13.6935 49.6643 13.9231 49.1435L18.7124 38.2801C19.4623 38.3722 20.2256 38.4205 21 38.4205C21.7744 38.4205 22.5377 38.3723 23.2876 38.2801L28.0769 49.1435C28.3064 49.6643 28.8217 50.0001 29.3905 50H29.3964C29.9675 49.9977 30.4828 49.6571 30.7088 49.1327L33.2782 43.1728L39.4239 45.2596C39.9628 45.4426 40.5597 45.2897 40.9442 44.8696C41.3289 44.4495 41.4288 43.8418 41.1988 43.3207L35.8082 31.1019C38.2239 27.9558 39.6625 24.0221 39.6625 19.7581C39.6625 9.41481 31.2905 1 21.0001 1C10.7097 1 2.33773 9.41481 2.33773 19.7581C2.33773 24.0221 3.77626 27.9559 6.19203 31.1019L0.801385 43.3207C0.571503 43.8418 0.671322 44.4495 1.05596 44.8696ZM37.2531 41.4903L32.9462 40.0279C32.2374 39.7871 31.4627 40.1316 31.1663 40.819L29.3758 44.9724L26.1664 37.6924C29.0126 36.8713 31.5807 35.3891 33.6945 33.4242L37.2531 41.4903ZM5.20886 19.7581C5.20886 10.998 12.2928 3.87113 21.0001 3.87113C29.7074 3.87113 36.7913 10.998 36.7913 19.7581C36.7913 28.4654 29.7074 35.5493 21.0001 35.5493C12.2928 35.5493 5.20886 28.4654 5.20886 19.7581ZM8.30557 33.4242C10.4195 35.3891 12.9876 36.8714 15.8338 37.6924L12.6243 44.9723L10.8339 40.8189C10.5375 40.1314 9.76277 39.7871 9.05408 40.0278L4.74709 41.4902L8.30557 33.4242Z" fill="#25292A" stroke="white"/>
<path d="M15.3612 21.5902L14.5218 26.4839C14.4294 27.0224 14.6508 27.5668 15.0929 27.8879C15.5342 28.2085 16.1202 28.2519 16.6047 27.9972L20.9995 25.6867L25.3943 27.9972C25.8781 28.2515 26.4643 28.2091 26.9061 27.8879C27.3482 27.5668 27.5697 27.0225 27.4773 26.4839L26.638 21.5902L30.1934 18.1245C30.5846 17.7431 30.7255 17.1726 30.5566 16.6529C30.3877 16.1332 29.9385 15.7544 29.3978 15.6759L24.4842 14.9619L22.2869 10.5095C22.045 10.0195 21.5459 9.70926 20.9995 9.70926C20.4532 9.70926 19.9541 10.0194 19.7122 10.5095L17.5149 14.9619L12.6013 15.6759C12.0606 15.7544 11.6112 16.1332 11.4424 16.6529C11.2735 17.1726 11.4144 17.7431 11.8056 18.1246L15.3612 21.5902ZM18.6746 17.6946C19.1422 17.6266 19.5464 17.333 19.7555 16.9092L20.9995 14.3884L22.2436 16.9092C22.4527 17.3329 22.857 17.6266 23.3245 17.6946L26.1063 18.0988L24.0934 20.0609C23.7551 20.3907 23.6007 20.8659 23.6806 21.3316L24.1558 24.1023L21.6676 22.7942C21.2494 22.5743 20.7498 22.5742 20.3315 22.7942L17.8433 24.1023L18.3185 21.3316C18.3983 20.8659 18.2439 20.3907 17.9056 20.0609L15.8926 18.0988L18.6746 17.6946Z" fill="#25292A" stroke="white"/>
</svg>
