<svg width="52" height="51" viewBox="0 0 52 51" fill="none" xmlns="http://www.w3.org/2000/svg">
<path d="M28.0098 42.3438H12.9844C6.65189 42.3438 1.5 37.1919 1.5 30.8594V12.4844C1.5 6.15189 6.65189 1 12.9844 1H39.0156C45.3481 1 50.5 6.15189 50.5 12.4844V15.9297C50.3989 18.4693 46.7721 18.4674 46.6719 15.9297V12.4844C46.6719 8.26272 43.2373 4.82812 39.0156 4.82812H12.9844C8.76272 4.82812 5.32812 8.26272 5.32812 12.4844V30.8594C5.32812 35.081 8.76272 38.5156 12.9844 38.5156H28.0098C30.5493 38.6168 30.5474 42.2436 28.0098 42.3438ZM28.6797 21.0977C28.6797 20.0405 27.8228 19.1836 26.7656 19.1836H12.9844C10.4448 19.2847 10.4467 22.9115 12.9844 23.0117H26.7656C27.8228 23.0117 28.6797 22.1548 28.6797 21.0977ZM23.6074 28.7539C23.6074 27.6968 22.7505 26.8398 21.6934 26.8398H12.9844C10.4448 26.9409 10.4467 30.5678 12.9844 30.668H21.6934C22.7505 30.668 23.6074 29.811 23.6074 28.7539ZM43.0453 38.4949L43.4182 37.9336L44.0788 38.0669C45.2932 38.3116 46.5408 37.9351 47.4166 37.0593C48.2924 36.1835 48.6691 34.9358 48.4241 33.7216L48.2908 33.061L48.8522 32.6882C51.0352 31.2819 51.0347 27.9487 48.8522 26.5429L48.2908 26.1699L48.4241 25.5094C48.6691 24.2952 48.2924 23.0474 47.4165 22.1716C46.5407 21.2958 45.2928 20.9193 44.0787 21.1641L43.4181 21.2974L43.0452 20.7361C43.0452 20.7361 43.0452 20.7361 43.0452 20.736C41.6388 18.553 38.3058 18.5536 36.8999 20.7361L36.5271 21.2974L35.8664 21.1641C34.6521 20.9193 33.4045 21.2958 32.5287 22.1716C31.6528 23.0475 31.2762 24.2952 31.5211 25.5095L31.6544 26.17L31.093 26.5429C28.91 27.9491 28.9105 31.2824 31.093 32.6882L31.6544 33.0611L31.5211 33.7217C31.2761 34.9359 31.6528 36.1836 32.5286 37.0594C33.4045 37.9352 34.6521 38.3116 35.8663 38.067L36.5271 37.9337L36.8999 38.495C37.5852 39.5267 38.7339 40.1428 39.9725 40.1428C41.2111 40.1428 42.3599 39.5266 43.0453 38.4949ZM35.862 34.1624L35.3152 34.2726L35.4255 33.7259C35.7233 32.2495 35.1051 30.7571 33.8506 29.9239L33.386 29.6151L33.8506 29.3065C35.1051 28.4732 35.7233 26.9808 35.4255 25.5044L35.3152 24.9576L35.862 25.068C37.3383 25.3658 38.8308 24.7476 39.6641 23.493L39.9727 23.0285L40.2813 23.4931C41.1146 24.7476 42.607 25.3657 44.0835 25.068L44.6302 24.9576L44.5199 25.5045C44.2221 26.9808 44.8403 28.4732 46.0948 29.3064L46.5594 29.6151L46.0948 29.9238C44.8403 30.7571 44.2221 32.2495 44.5199 33.7259L44.6302 34.2726L44.0834 34.1624C42.6065 33.8648 41.1146 34.4829 40.2813 35.7374L39.9727 36.202L39.6641 35.7375C38.9698 34.6921 37.818 34.0886 36.599 34.0886C36.3551 34.0886 36.1083 34.1128 35.862 34.1624ZM40.9297 13.4414C40.9297 12.3843 40.0728 11.5273 39.0156 11.5273H12.9844C10.4448 11.6284 10.4467 15.2553 12.9844 15.3555H39.0156C40.0728 15.3555 40.9297 14.4985 40.9297 13.4414ZM44.6041 49.7288C45.8021 49.2106 46.5762 48.0325 46.5762 46.7272V43.1094C46.4751 40.5698 42.8482 40.5717 42.748 43.1094V45.4522L41.1755 44C40.4423 43.3228 39.3116 43.3228 38.5784 44L37.0059 45.4523V43.1095C36.9048 40.5699 33.2779 40.5718 33.1777 43.1095V46.7273C33.1777 48.0326 33.9518 49.2107 35.1498 49.7288C36.3447 50.2456 37.729 50.0054 38.6798 49.1171L39.877 48.0117L41.0741 49.1171C41.6921 49.6943 42.4929 49.9978 43.306 49.9978C43.744 49.9978 44.1857 49.9097 44.6041 49.7288Z" fill="#25292A"/>
<path d="M43.47 21.3752H43.471M28.0098 42.3438H12.9844C6.65189 42.3438 1.5 37.1919 1.5 30.8594V12.4844C1.5 6.15189 6.65189 1 12.9844 1H39.0156C45.3481 1 50.5 6.15189 50.5 12.4844V15.9297C50.3989 18.4693 46.7721 18.4674 46.6719 15.9297V12.4844C46.6719 8.26272 43.2373 4.82812 39.0156 4.82812H12.9844C8.76272 4.82812 5.32812 8.26272 5.32812 12.4844V30.8594C5.32812 35.081 8.76272 38.5156 12.9844 38.5156H28.0098C30.5493 38.6168 30.5474 42.2436 28.0098 42.3438ZM28.6797 21.0977C28.6797 20.0405 27.8228 19.1836 26.7656 19.1836H12.9844C10.4448 19.2847 10.4467 22.9115 12.9844 23.0117H26.7656C27.8228 23.0117 28.6797 22.1548 28.6797 21.0977ZM23.6074 28.7539C23.6074 27.6968 22.7505 26.8398 21.6934 26.8398H12.9844C10.4448 26.9409 10.4467 30.5678 12.9844 30.668H21.6934C22.7505 30.668 23.6074 29.811 23.6074 28.7539ZM43.0453 38.4949L43.4182 37.9336L44.0788 38.0669C45.2932 38.3116 46.5408 37.9351 47.4166 37.0593C48.2924 36.1835 48.6691 34.9358 48.4241 33.7216L48.2908 33.061L48.8522 32.6882C51.0352 31.2819 51.0347 27.9487 48.8522 26.5429L48.2908 26.1699L48.4241 25.5094C48.6691 24.2952 48.2924 23.0474 47.4165 22.1716C46.5407 21.2958 45.2928 20.9193 44.0787 21.1641L43.4181 21.2974L43.0452 20.7361C43.0452 20.7361 43.0452 20.7361 43.0452 20.736C41.6388 18.553 38.3058 18.5536 36.8999 20.7361L36.5271 21.2974L35.8664 21.1641C34.6521 20.9193 33.4045 21.2958 32.5287 22.1716C31.6528 23.0475 31.2762 24.2952 31.5211 25.5095L31.6544 26.17L31.093 26.5429C28.91 27.9491 28.9105 31.2824 31.093 32.6882L31.6544 33.0611L31.5211 33.7217C31.2761 34.9359 31.6528 36.1836 32.5286 37.0594C33.4045 37.9352 34.6521 38.3116 35.8663 38.067L36.5271 37.9337L36.8999 38.495C37.5852 39.5267 38.7339 40.1428 39.9725 40.1428C41.2111 40.1428 42.3599 39.5266 43.0453 38.4949ZM35.862 34.1624L35.3152 34.2726L35.4255 33.7259C35.7233 32.2495 35.1051 30.7571 33.8506 29.9239L33.386 29.6151L33.8506 29.3065C35.1051 28.4732 35.7233 26.9808 35.4255 25.5044L35.3152 24.9576L35.862 25.068C37.3383 25.3658 38.8308 24.7476 39.6641 23.493L39.9727 23.0285L40.2813 23.4931C41.1146 24.7476 42.607 25.3657 44.0835 25.068L44.6302 24.9576L44.5199 25.5045C44.2221 26.9808 44.8403 28.4732 46.0948 29.3064L46.5594 29.6151L46.0948 29.9238C44.8403 30.7571 44.2221 32.2495 44.5199 33.7259L44.6302 34.2726L44.0834 34.1624C42.6065 33.8648 41.1146 34.4829 40.2813 35.7374L39.9727 36.202L39.6641 35.7375C38.9698 34.6921 37.818 34.0886 36.599 34.0886C36.3551 34.0886 36.1083 34.1128 35.862 34.1624ZM40.9297 13.4414C40.9297 12.3843 40.0728 11.5273 39.0156 11.5273H12.9844C10.4448 11.6284 10.4467 15.2553 12.9844 15.3555H39.0156C40.0728 15.3555 40.9297 14.4985 40.9297 13.4414ZM44.6041 49.7288C45.8021 49.2106 46.5762 48.0325 46.5762 46.7272V43.1094C46.4751 40.5698 42.8482 40.5717 42.748 43.1094V45.4522L41.1755 44C40.4423 43.3228 39.3116 43.3228 38.5784 44L37.0059 45.4523V43.1095C36.9048 40.5699 33.2779 40.5718 33.1777 43.1095V46.7273C33.1777 48.0326 33.9518 49.2107 35.1498 49.7288C36.3447 50.2456 37.729 50.0054 38.6798 49.1171L39.877 48.0117L41.0741 49.1171C41.6921 49.6943 42.4929 49.9978 43.306 49.9978C43.744 49.9978 44.1857 49.9097 44.6041 49.7288Z" stroke="white" stroke-width="1.2"/>
</svg>
