<svg width="50" height="49" viewBox="0 0 50 49" fill="none" xmlns="http://www.w3.org/2000/svg">
<path d="M16.8333 42.875V40.8334C16.8333 39.7504 17.2635 38.7118 18.0293 37.946C18.7951 37.1802 19.8337 36.75 20.9167 36.75H29.0833C30.1663 36.75 31.2049 37.1802 31.9707 37.946C32.7365 38.7118 33.1667 39.7504 33.1667 40.8334V42.875M35.2083 20.4167H39.2917C40.3746 20.4167 41.4132 20.8469 42.179 21.6127C42.9448 22.3785 43.375 23.4171 43.375 24.5V26.5417M6.625 26.5417V24.5C6.625 23.4171 7.05521 22.3785 7.82098 21.6127C8.58675 20.8469 9.62537 20.4167 10.7083 20.4167H14.7917M20.9167 26.5417C20.9167 27.6247 21.3469 28.6633 22.1126 29.4291C22.8784 30.1948 23.917 30.625 25 30.625C26.083 30.625 27.1216 30.1948 27.8874 29.4291C28.6531 28.6633 29.0833 27.6247 29.0833 26.5417C29.0833 25.4587 28.6531 24.4201 27.8874 23.6543C27.1216 22.8886 26.083 22.4584 25 22.4584C23.917 22.4584 22.8784 22.8886 22.1126 23.6543C21.3469 24.4201 20.9167 25.4587 20.9167 26.5417ZM31.125 10.2084C31.125 11.2913 31.5552 12.3299 32.321 13.0957C33.0868 13.8615 34.1254 14.2917 35.2083 14.2917C36.2913 14.2917 37.3299 13.8615 38.0957 13.0957C38.8615 12.3299 39.2917 11.2913 39.2917 10.2084C39.2917 9.1254 38.8615 8.08678 38.0957 7.32101C37.3299 6.55524 36.2913 6.12503 35.2083 6.12503C34.1254 6.12503 33.0868 6.55524 32.321 7.32101C31.5552 8.08678 31.125 9.1254 31.125 10.2084ZM10.7083 10.2084C10.7083 11.2913 11.1385 12.3299 11.9043 13.0957C12.6701 13.8615 13.7087 14.2917 14.7917 14.2917C15.8746 14.2917 16.9132 13.8615 17.679 13.0957C18.4448 12.3299 18.875 11.2913 18.875 10.2084C18.875 9.1254 18.4448 8.08678 17.679 7.32101C16.9132 6.55524 15.8746 6.12503 14.7917 6.12503C13.7087 6.12503 12.6701 6.55524 11.9043 7.32101C11.1385 8.08678 10.7083 9.1254 10.7083 10.2084Z" stroke="#25292A" stroke-width="2.45192" stroke-linecap="round" stroke-linejoin="round"/>
</svg>
