<svg width="50" height="49" viewBox="0 0 50 49" fill="none" xmlns="http://www.w3.org/2000/svg">
<path d="M16.8333 14.2917V10.2083C16.8333 9.12537 17.2635 8.08675 18.0293 7.32098C18.7951 6.55521 19.8337 6.125 20.9167 6.125H29.0833C30.1663 6.125 31.2049 6.55521 31.9707 7.32098C32.7365 8.08675 33.1667 9.12537 33.1667 10.2083V14.2917M25 24.5V24.5204M6.625 26.5417C12.3245 29.4137 18.6178 30.9097 25 30.9097C31.3822 30.9097 37.6755 29.4137 43.375 26.5417M6.625 18.375C6.625 17.292 7.05521 16.2534 7.82098 15.4876C8.58675 14.7219 9.62537 14.2917 10.7083 14.2917H39.2917C40.3746 14.2917 41.4132 14.7219 42.179 15.4876C42.9448 16.2534 43.375 17.292 43.375 18.375V36.75C43.375 37.833 42.9448 38.8716 42.179 39.6373C41.4132 40.4031 40.3746 40.8333 39.2917 40.8333H10.7083C9.62537 40.8333 8.58675 40.4031 7.82098 39.6373C7.05521 38.8716 6.625 37.833 6.625 36.75V18.375Z" stroke="#25292A" stroke-width="2.45192" stroke-linecap="round" stroke-linejoin="round"/>
</svg>
