<svg width="50" height="49" viewBox="0 0 50 49" fill="none" xmlns="http://www.w3.org/2000/svg">
<path d="M14.7916 28.5833C12.6667 29.783 10.9485 31.5899 9.85724 33.7724C8.76597 35.9549 8.35139 38.4136 8.66663 40.8333C11.0863 41.1486 13.545 40.734 15.7276 39.6427C17.9101 38.5515 19.717 36.8332 20.9166 34.7083M8.66665 26.5417C12.3071 26.9743 15.6962 28.6191 18.2885 31.2115C20.8808 33.8038 22.5257 37.1928 22.9583 40.8333C24.763 39.7929 26.2725 38.3095 27.3443 36.5232C28.416 34.737 29.0146 32.707 29.0833 30.625C32.5115 29.419 35.5051 27.2236 37.6856 24.3163C39.866 21.409 41.1355 17.9204 41.3333 14.2917C41.3333 12.6672 40.688 11.1093 39.5393 9.96064C38.3907 8.81198 36.8328 8.16667 35.2083 8.16667C31.5796 8.36452 28.091 9.63394 25.1837 11.8144C22.2764 13.9949 20.081 16.9885 18.875 20.4167C16.793 20.4854 14.763 21.084 12.9767 22.1557C11.1905 23.2274 9.70706 24.737 8.66665 26.5417ZM29.0833 18.375C29.0833 18.9165 29.2984 19.4358 29.6813 19.8187C30.0642 20.2016 30.5835 20.4167 31.125 20.4167C31.6665 20.4167 32.1858 20.2016 32.5687 19.8187C32.9515 19.4358 33.1666 18.9165 33.1666 18.375C33.1666 17.8335 32.9515 17.3142 32.5687 16.9313C32.1858 16.5484 31.6665 16.3333 31.125 16.3333C30.5835 16.3333 30.0642 16.5484 29.6813 16.9313C29.2984 17.3142 29.0833 17.8335 29.0833 18.375Z" stroke="#25292A" stroke-width="2.45192" stroke-linecap="round" stroke-linejoin="round"/>
</svg>
