<svg width="49" height="49" viewBox="0 0 49 49" fill="none" xmlns="http://www.w3.org/2000/svg">
<path d="M7.35 18.375H41.65M7.35 30.625H41.65M23.4792 6.12503C20.0397 11.6367 18.2162 18.0032 18.2162 24.5C18.2162 30.9969 20.0397 37.3633 23.4792 42.875M25.5208 6.12503C28.9603 11.6367 30.7838 18.0032 30.7838 24.5C30.7838 30.9969 28.9603 37.3633 25.5208 42.875M6.125 24.5C6.125 26.9131 6.60028 29.3025 7.52371 31.5318C8.44714 33.7612 9.80064 35.7868 11.5069 37.4931C13.2132 39.1994 15.2388 40.5529 17.4682 41.4763C19.6976 42.3998 22.087 42.875 24.5 42.875C26.913 42.875 29.3025 42.3998 31.5318 41.4763C33.7612 40.5529 35.7868 39.1994 37.4931 37.4931C39.1994 35.7868 40.5529 33.7612 41.4763 31.5318C42.3997 29.3025 42.875 26.9131 42.875 24.5C42.875 19.6267 40.9391 14.9529 37.4931 11.5069C34.0471 8.06096 29.3734 6.12503 24.5 6.12503C19.6266 6.12503 14.9529 8.06096 11.5069 11.5069C8.06093 14.9529 6.125 19.6267 6.125 24.5Z" stroke="#25292A" stroke-width="2.45192" stroke-linecap="round" stroke-linejoin="round"/>
</svg>
