<svg width="50" height="50" viewBox="0 0 50 50" fill="none" xmlns="http://www.w3.org/2000/svg">
<g clip-path="url(#clip0_797_32106)">
<path d="M14.1859 43.2405H10.1319C8.26972 43.2405 6.7535 41.7243 6.7535 39.8621V7.42971C6.7535 5.56755 8.26972 4.05133 10.1319 4.05133H20.267V16.8892C20.267 18.0081 21.1751 18.9162 22.294 18.9162H35.267C35.5481 19.7 36.2778 20.2675 37.1589 20.2675C38.2778 20.2675 39.1859 19.3594 39.1859 18.2405V16.8892C39.1859 16.6189 39.1319 16.3541 39.0292 16.1081C38.9265 15.8622 38.7778 15.6405 38.594 15.4567L23.7292 0.591876C23.5427 0.40539 23.3238 0.259456 23.0778 0.156753C22.8319 0.0540504 22.567 0 22.2967 0H10.1346C6.03458 0 2.70215 3.33243 2.70215 7.43243V39.8649C2.70215 43.9649 6.03458 47.2973 10.1346 47.2973H14.1886C15.3076 47.2973 16.2157 46.3892 16.2157 45.2703C16.2157 44.1514 15.3049 43.2405 14.1859 43.2405ZM24.3211 6.91623L32.2643 14.8595H24.3211V6.91623ZM45.5724 23.3054C44.5373 22.2703 43.04 21.6568 41.467 21.6216C39.8454 21.5297 38.3184 22.1649 37.2697 23.2135L19.9886 40.5216C19.6481 40.8622 19.44 41.3135 19.3994 41.7946L18.9157 47.8108C18.867 48.4054 19.0859 48.9946 19.513 49.4135C19.894 49.7919 20.4076 50 20.9373 50C20.9967 50 21.0589 49.9973 21.1211 49.9919L27.1967 49.4378C27.6697 49.3919 28.1103 49.1865 28.4454 48.8513L45.7265 31.5459C47.8832 29.3946 47.8076 25.5432 45.5724 23.3054ZM42.8643 28.6757L26.1022 45.4622L23.1562 45.7324L23.3859 42.8621L40.14 26.0811C40.4049 25.8162 40.8886 25.6892 41.3751 25.6757C41.9076 25.6892 42.4049 25.873 42.7022 26.1757C43.34 26.8054 43.4238 28.1162 42.8643 28.6757Z" fill="#25292A" stroke="white" stroke-width="1.5"/>
</g>
<defs>
<clipPath id="clip0_797_32106">
<rect width="50" height="50" fill="white"/>
</clipPath>
</defs>
</svg>
