<svg width="50" height="49" viewBox="0 0 50 49" fill="none" xmlns="http://www.w3.org/2000/svg">
<path d="M22.9583 12.25C22.9583 13.8745 24.0339 15.4324 25.9483 16.5811C27.8627 17.7297 30.4592 18.375 33.1667 18.375C35.8741 18.375 38.4706 17.7297 40.385 16.5811C42.2995 15.4324 43.375 13.8745 43.375 12.25M22.9583 12.25C22.9583 10.6256 24.0339 9.06766 25.9483 7.919C27.8627 6.77034 30.4592 6.12503 33.1667 6.12503C35.8741 6.12503 38.4706 6.77034 40.385 7.919C42.2995 9.06766 43.375 10.6256 43.375 12.25M22.9583 12.25V20.4167M43.375 12.25V20.4167M22.9583 20.4167C22.9583 23.7997 27.5296 26.5417 33.1667 26.5417C38.8037 26.5417 43.375 23.7997 43.375 20.4167M22.9583 20.4167V28.5834M43.375 20.4167V28.5834M22.9583 28.5834C22.9583 31.9664 27.5296 34.7084 33.1667 34.7084C38.8037 34.7084 43.375 31.9664 43.375 28.5834M22.9583 28.5834V36.75C22.9583 40.1331 27.5296 42.875 33.1667 42.875C38.8037 42.875 43.375 40.1331 43.375 36.75V28.5834M14.7917 18.375H9.6875C8.87527 18.375 8.09632 18.6977 7.52199 19.272C6.94766 19.8463 6.625 20.6253 6.625 21.4375C6.625 22.2498 6.94766 23.0287 7.52199 23.603C8.09632 24.1774 8.87527 24.5 9.6875 24.5H11.7292C12.5414 24.5 13.3204 24.8227 13.8947 25.397C14.469 25.9713 14.7917 26.7503 14.7917 27.5625C14.7917 28.3748 14.469 29.1537 13.8947 29.728C13.3204 30.3024 12.5414 30.625 11.7292 30.625H6.625M10.7083 30.625V32.6667M10.7083 16.3334V18.375" stroke="#25292A" stroke-width="2.45192" stroke-linecap="round" stroke-linejoin="round"/>
</svg>
