<svg width="50" height="49" viewBox="0 0 50 49" fill="none" xmlns="http://www.w3.org/2000/svg">
<path d="M14.791 20.4166H20.916V14.2916L13.7702 7.14576C16.0561 6.05403 18.6243 5.69782 21.121 6.1262C23.6178 6.55457 25.9203 7.74645 27.7116 9.53772C29.5028 11.329 30.6947 13.6315 31.1231 16.1283C31.5515 18.625 31.1953 21.1932 30.1035 23.4791L42.3535 35.7291C43.1658 36.5413 43.6221 37.6429 43.6221 38.7916C43.6221 39.9402 43.1658 41.0419 42.3535 41.8541C41.5413 42.6663 40.4397 43.1226 39.291 43.1226C38.1424 43.1226 37.0408 42.6663 36.2285 41.8541L23.9785 29.6041C21.6926 30.6958 19.1245 31.052 16.6277 30.6237C14.131 30.1953 11.8284 29.0034 10.0372 27.2121C8.2459 25.4209 7.05402 23.1183 6.62565 20.6216C6.19727 18.1248 6.55348 15.5567 7.64521 13.2708L14.791 20.4166Z" stroke="#25292A" stroke-width="2.45192" stroke-linecap="round" stroke-linejoin="round"/>
</svg>
