<svg width="50" height="49" viewBox="0 0 50 49" fill="none" xmlns="http://www.w3.org/2000/svg">
<path d="M6.625 20.4167H10.7083M6.625 28.5834H10.7083M20.9167 6.12503V10.2084M29.0833 6.12503V10.2084M43.375 20.4167H39.2917M43.375 28.5834H39.2917M29.0833 42.875V38.7917M20.9167 42.875V38.7917M10.7083 12.25C10.7083 11.7085 10.9234 11.1892 11.3063 10.8064C11.6892 10.4235 12.2085 10.2084 12.75 10.2084H37.25C37.7915 10.2084 38.3108 10.4235 38.6937 10.8064C39.0766 11.1892 39.2917 11.7085 39.2917 12.25V36.75C39.2917 37.2915 39.0766 37.8108 38.6937 38.1937C38.3108 38.5766 37.7915 38.7917 37.25 38.7917H12.75C12.2085 38.7917 11.6892 38.5766 11.3063 38.1937C10.9234 37.8108 10.7083 37.2915 10.7083 36.75V12.25ZM18.875 18.375H31.125V30.625H18.875V18.375Z" stroke="#25292A" stroke-width="2.45192" stroke-linecap="round" stroke-linejoin="round"/>
</svg>
