<svg width="50" height="49" viewBox="0 0 50 49" fill="none" xmlns="http://www.w3.org/2000/svg">
<path d="M40.3117 25.6678L24.9992 40.8333L9.68669 25.6678C8.67669 24.685 7.88113 23.5037 7.3501 22.1983C6.81907 20.8929 6.56409 19.4917 6.6012 18.0829C6.63831 16.6741 6.96671 15.2882 7.56572 14.0126C8.16473 12.737 9.02138 11.5992 10.0817 10.6709C11.1421 9.7426 12.3831 9.04391 13.7268 8.61882C15.0704 8.19373 16.4875 8.05145 17.8888 8.20093C19.2901 8.35042 20.6453 8.78843 21.8691 9.4874C23.0928 10.1864 24.1585 11.1311 24.9992 12.2622C25.8435 11.1393 26.9105 10.2028 28.1334 9.51128C29.3562 8.81974 30.7087 8.38805 32.1061 8.24323C33.5035 8.09842 34.9157 8.2436 36.2544 8.66968C37.5931 9.09576 38.8295 9.79358 39.8861 10.7195C40.9427 11.6453 41.7969 12.7793 42.395 14.0505C42.9932 15.3217 43.3226 16.7026 43.3626 18.1069C43.4025 19.5112 43.1522 20.9087 42.6272 22.2118C42.1022 23.5149 41.314 24.6956 40.3117 25.68M24.999 12.25L18.2758 18.9732C17.8931 19.3561 17.678 19.8753 17.678 20.4166C17.678 20.958 17.8931 21.4772 18.2758 21.8601L19.3844 22.9687C20.7932 24.3775 23.0798 24.3775 24.4886 22.9687L26.5303 20.9271C27.7486 19.7087 29.401 19.0243 31.124 19.0243C32.847 19.0243 34.4994 19.7087 35.7178 20.9271L40.3115 25.5208M26.0199 31.6458L30.1032 35.7291M31.1241 26.5416L35.2074 30.625" stroke="#25292A" stroke-width="2.45192" stroke-linecap="round" stroke-linejoin="round"/>
</svg>
