<svg width="20" height="20" viewBox="0 0 20 20" fill="none" xmlns="http://www.w3.org/2000/svg">
<path d="M10.4167 18.9583H3.40006C2.09172 18.9583 1.01672 17.9083 1.01672 16.6083V4.24166C1.01672 2.96666 1.49172 1.97499 2.35839 1.43333C3.23339 0.883327 4.36672 0.899993 5.54172 1.48333L9.24172 3.29999C10.2501 3.79999 11.0417 5.05833 11.0417 6.17499V18.3333C11.0417 18.675 10.7584 18.9583 10.4167 18.9583ZM3.80006 2.29166C3.50839 2.29166 3.24172 2.35833 3.01672 2.49999C2.53339 2.79999 2.26672 3.42499 2.26672 4.24166V16.6083C2.26672 17.2167 2.77506 17.7083 3.40006 17.7083H9.79172V6.17499C9.79172 5.53333 9.27506 4.70833 8.68339 4.42499L4.98339 2.60833C4.55839 2.39999 4.15839 2.29166 3.80006 2.29166Z" fill="#49909D"/>
<path d="M15.675 18.9583H10.4166C10.075 18.9583 9.79163 18.675 9.79163 18.3333V8.68333C9.79163 8.49167 9.87496 8.31667 10.025 8.2C10.175 8.08333 10.3583 8.03333 10.55 8.075L10.9416 8.15833L16.3916 9.375C18.05 9.74167 18.8833 10.7167 18.9333 12.375C18.9416 12.375 18.9416 12.4583 18.9416 12.55V15.7C18.9333 17.8333 17.8083 18.9583 15.675 18.9583ZM11.0416 17.7083H15.675C17.1416 17.7083 17.6833 17.1667 17.6833 15.7V12.4833C17.6416 11.3417 17.2083 10.8333 16.1166 10.5917L11.0416 9.45833V17.7083Z" fill="#49909D"/>
<path d="M7.47504 8.125H4.58337C4.24171 8.125 3.95837 7.84167 3.95837 7.5C3.95837 7.15833 4.24171 6.875 4.58337 6.875H7.47504C7.81671 6.875 8.10004 7.15833 8.10004 7.5C8.10004 7.84167 7.82504 8.125 7.47504 8.125Z" fill="#49909D"/>
<path d="M7.47504 11.4583H4.58337C4.24171 11.4583 3.95837 11.175 3.95837 10.8333C3.95837 10.4916 4.24171 10.2083 4.58337 10.2083H7.47504C7.81671 10.2083 8.10004 10.4916 8.10004 10.8333C8.10004 11.175 7.82504 11.4583 7.47504 11.4583Z" fill="#49909D"/>
<path d="M12.6833 14.7917C11.3083 14.7917 10.1833 13.6667 10.1833 12.2917V8.76669C10.1833 8.57502 10.2667 8.40002 10.4167 8.27502C10.5667 8.15002 10.7583 8.10836 10.9417 8.15002L14.6917 8.99169C14.975 9.05836 15.1833 9.30836 15.1833 9.60003V12.2834C15.1833 13.6667 14.0667 14.7917 12.6833 14.7917ZM11.4333 9.55002V12.2917C11.4333 12.9834 11.9917 13.5417 12.6833 13.5417C13.375 13.5417 13.9333 12.9834 13.9333 12.2917V10.1084L11.4333 9.55002Z" fill="#49909D"/>
<path d="M16.4333 14.7917C15.0583 14.7917 13.9333 13.6667 13.9333 12.2917V9.60832C13.9333 9.41665 14.0167 9.24165 14.1667 9.12499C14.3167 9.00832 14.5083 8.95832 14.6917 8.99999L16.3834 9.37499C18.0417 9.74165 18.875 10.7167 18.925 12.375C18.925 12.3917 18.925 12.4083 18.925 12.425C18.8583 13.75 17.7667 14.7917 16.4333 14.7917ZM15.1833 10.3833V12.2917C15.1833 12.9833 15.7417 13.5417 16.4333 13.5417C17.0917 13.5417 17.6333 13.0333 17.675 12.3833C17.6333 11.3333 17.2 10.8333 16.1167 10.5917L15.1833 10.3833Z" fill="#49909D"/>
</svg>
