<svg width="16" height="17" viewBox="0 0 16 17" fill="none" xmlns="http://www.w3.org/2000/svg">
<path d="M9.63969 13.72C9.48636 13.72 9.33302 13.6867 9.19302 13.6133C9.15969 13.5933 9.12635 13.5733 9.09969 13.5467L7.98635 12.6L6.89302 13.5467C6.85969 13.5733 6.82635 13.5933 6.79302 13.6133C6.53302 13.74 6.23969 13.7533 5.97969 13.64C5.71302 13.5267 5.51302 13.3067 5.41969 13.0333L5.20635 12.3933C5.09302 12.06 5.19302 11.64 5.43969 11.3867L6.55302 10.2933L6.54635 9.32666L4.53969 10.1867C4.20635 10.3267 3.85969 10.3133 3.59302 10.1333C3.33302 9.96666 3.17969 9.65333 3.17969 9.29333V8.67333C3.17969 8.15333 3.53969 7.6 4.01969 7.39333L6.54635 6.30666V5.03333C6.54635 4.38 6.97969 3.67333 7.55969 3.39333C7.84635 3.25333 8.17302 3.25333 8.45969 3.39333C9.03969 3.69333 9.47302 4.4 9.47302 5.03333V6.30666L11.9997 7.39333C12.4797 7.59333 12.8397 8.14666 12.8397 8.67333V9.29333C12.8397 9.65333 12.6864 9.96666 12.413 10.14C12.1397 10.3133 11.7997 10.3333 11.4664 10.1933L9.46636 9.33333V10.3133L10.553 11.4C10.7997 11.6467 10.8997 12.0733 10.7864 12.4067L10.573 13.04C10.4797 13.3133 10.2797 13.5333 10.013 13.64C9.89302 13.6933 9.76636 13.72 9.63969 13.72ZM7.99969 11.6133C8.22635 11.6133 8.44635 11.6867 8.62635 11.8267L9.65969 12.7067L9.83969 12.0867L8.75302 11.0067C8.57969 10.84 8.46635 10.56 8.46635 10.3133V9.08C8.46635 8.78 8.59302 8.52 8.81969 8.36666C9.04635 8.21333 9.33969 8.19333 9.61969 8.31333L11.833 9.26L11.8397 8.67333C11.8397 8.54666 11.7197 8.36 11.6064 8.31333L8.97302 7.18C8.68636 7.06 8.47302 6.74 8.47302 6.41333V5.03333C8.47302 4.77333 8.24636 4.40666 8.01302 4.28666C7.77302 4.40666 7.54635 4.76666 7.54635 5.03333V6.41333C7.54635 6.72666 7.33969 7.05333 7.04635 7.18L4.41969 8.31333C4.30635 8.36 4.17969 8.55333 4.17969 8.67333V9.26L6.38635 8.32C6.65969 8.2 6.94635 8.21333 7.17969 8.36666C7.41302 8.52 7.54635 8.78 7.54635 9.08666V10.32C7.54635 10.56 7.43302 10.84 7.25969 11.0133L6.13969 12.1133L6.35302 12.7L7.35969 11.8467C7.54635 11.6933 7.77302 11.6133 7.99969 11.6133ZM9.36636 6.26L9.37302 6.26666C9.37302 6.26 9.36636 6.26 9.36636 6.26Z" fill="#49909D"/>
<path d="M9.9987 15.6666H5.9987C2.3787 15.6666 0.832031 14.12 0.832031 10.5V6.49998C0.832031 2.87998 2.3787 1.33331 5.9987 1.33331H9.9987C13.6187 1.33331 15.1654 2.87998 15.1654 6.49998V10.5C15.1654 14.12 13.6187 15.6666 9.9987 15.6666ZM5.9987 2.33331C2.92536 2.33331 1.83203 3.42665 1.83203 6.49998V10.5C1.83203 13.5733 2.92536 14.6666 5.9987 14.6666H9.9987C13.072 14.6666 14.1654 13.5733 14.1654 10.5V6.49998C14.1654 3.42665 13.072 2.33331 9.9987 2.33331H5.9987Z" fill="#49909D"/>
</svg>
