<svg width="16" height="16" viewBox="0 0 16 16" fill="none" xmlns="http://www.w3.org/2000/svg">
<path d="M8.0001 14.8333C7.45344 14.8333 6.90676 14.66 6.45343 14.32L2.9801 11.72C2.33344 11.2333 1.94678 10.46 1.94678 9.65334V1.17334H14.0534V9.65334C14.0534 10.46 13.6668 11.2333 13.0201 11.72L9.54677 14.32C9.09344 14.66 8.54677 14.8333 8.0001 14.8333ZM2.94678 2.16668V9.64668C2.94678 10.14 3.18677 10.6133 3.5801 10.9133L7.05343 13.5133C7.61343 13.9333 8.39343 13.9333 8.95343 13.5133L12.4268 10.9133C12.8201 10.6133 13.0601 10.14 13.0601 9.64668V2.16668H2.94678Z" fill="#49909D"/>
<path d="M14.6668 2.16666H1.3335C1.06016 2.16666 0.833496 1.93999 0.833496 1.66666C0.833496 1.39332 1.06016 1.16666 1.3335 1.16666H14.6668C14.9402 1.16666 15.1668 1.39332 15.1668 1.66666C15.1668 1.93999 14.9402 2.16666 14.6668 2.16666Z" fill="#49909D"/>
<path d="M10.6666 5.83334H5.33325C5.05992 5.83334 4.83325 5.60668 4.83325 5.33334C4.83325 5.06001 5.05992 4.83334 5.33325 4.83334H10.6666C10.9399 4.83334 11.1666 5.06001 11.1666 5.33334C11.1666 5.60668 10.9399 5.83334 10.6666 5.83334Z" fill="#49909D"/>
<path d="M10.6666 9.16666H5.33325C5.05992 9.16666 4.83325 8.93999 4.83325 8.66666C4.83325 8.39332 5.05992 8.16666 5.33325 8.16666H10.6666C10.9399 8.16666 11.1666 8.39332 11.1666 8.66666C11.1666 8.93999 10.9399 9.16666 10.6666 9.16666Z" fill="#49909D"/>
</svg>
