<svg width="24" height="24" viewBox="0 0 24 24" fill="none" xmlns="http://www.w3.org/2000/svg">
<path d="M21.09 6.98002C20.24 6.04002 18.82 5.57002 16.76 5.57002H16.52V5.53002C16.52 3.85002 16.52 1.77002 12.76 1.77002H11.24C7.48004 1.77002 7.48004 3.86002 7.48004 5.53002V5.58002H7.24004C5.17004 5.58002 3.76004 6.05002 2.91004 6.99002C1.92004 8.09002 1.95004 9.57002 2.05004 10.58L2.06004 10.65L2.12622 11.3449C2.14762 11.5696 2.26874 11.7728 2.45798 11.8957C2.69852 12.052 3.03035 12.2635 3.24004 12.38C3.38004 12.47 3.53004 12.55 3.68004 12.63C5.39004 13.57 7.27004 14.2 9.18004 14.51C9.27004 15.45 9.68004 16.55 11.87 16.55C14.06 16.55 14.49 15.46 14.56 14.49C16.6 14.16 18.57 13.45 20.35 12.41C20.41 12.38 20.45 12.35 20.5 12.32C20.8657 12.1134 21.2439 11.8625 21.5947 11.6126C21.7649 11.4912 21.8732 11.3019 21.8962 11.0941L21.9 11.06L21.95 10.59C21.96 10.53 21.96 10.48 21.97 10.41C22.05 9.40002 22.03 8.02002 21.09 6.98002ZM13.09 13.83C13.09 14.89 13.09 15.05 11.86 15.05C10.63 15.05 10.63 14.86 10.63 13.84V12.58H13.09V13.83ZM8.91004 5.57002V5.53002C8.91004 3.83002 8.91004 3.20002 11.24 3.20002H12.76C15.09 3.20002 15.09 3.84002 15.09 5.53002V5.58002H8.91004V5.57002Z" fill="#B5CA6E"/>
<path d="M20.4683 13.9253C21.0004 13.6764 21.6115 14.0977 21.5584 14.6827L21.24 18.19C21.03 20.19 20.21 22.23 15.81 22.23H8.18997C3.78997 22.23 2.96997 20.19 2.75997 18.2L2.4589 14.8882C2.40634 14.31 3.00323 13.8892 3.53367 14.1252C4.67326 14.6323 6.38401 15.3566 7.54452 15.6809C7.7899 15.7494 7.98871 15.9271 8.10586 16.1534C8.73713 17.3726 10.0296 18.02 11.87 18.02C13.6922 18.02 14.9998 17.3475 15.6338 16.1237C15.7511 15.8973 15.9506 15.7196 16.1961 15.6504C17.4333 15.3018 19.2675 14.487 20.4683 13.9253Z" fill="#B5CA6E"/>
</svg>
