<svg width="16" height="16" viewBox="0 0 16 16" fill="none" xmlns="http://www.w3.org/2000/svg">
<path d="M11.3265 6.47331H4.67316C4.39982 6.47331 4.17316 6.24665 4.17316 5.97331C4.17316 5.69998 4.39982 5.47331 4.67316 5.47331H11.3265C11.5998 5.47331 11.8265 5.69998 11.8265 5.97331C11.8265 6.24665 11.5998 6.47331 11.3265 6.47331Z" fill="#49909D"/>
<path d="M8 6.47334C7.72667 6.47334 7.5 6.24668 7.5 5.97334V4.85335C7.5 4.58001 7.72667 4.35335 8 4.35335C8.27333 4.35335 8.5 4.58001 8.5 4.85335V5.97334C8.5 6.24668 8.27333 6.47334 8 6.47334Z" fill="#49909D"/>
<path d="M4.66669 11.6466C4.39335 11.6466 4.16669 11.4199 4.16669 11.1466C4.16669 10.8733 4.39335 10.6466 4.66669 10.6466C7.14669 10.6466 9.16669 8.54663 9.16669 5.95996C9.16669 5.68663 9.39335 5.45996 9.66669 5.45996C9.94002 5.45996 10.1667 5.68663 10.1667 5.95996C10.1667 9.09996 7.70002 11.6466 4.66669 11.6466Z" fill="#49909D"/>
<path d="M11.3335 11.6467C10.0202 11.6467 8.80015 10.9933 7.90682 9.80001C7.74015 9.58001 7.78683 9.26669 8.00683 9.10002C8.22683 8.93336 8.54016 8.98 8.70682 9.2C9.41349 10.1333 10.3468 10.6467 11.3402 10.6467C11.6135 10.6467 11.8402 10.8733 11.8402 11.1467C11.8402 11.42 11.6068 11.6467 11.3335 11.6467Z" fill="#49909D"/>
<path d="M9.99998 15.1667H5.99998C2.37998 15.1667 0.833313 13.62 0.833313 10V6C0.833313 2.38 2.37998 0.833328 5.99998 0.833328H9.99998C13.62 0.833328 15.1666 2.38 15.1666 6V10C15.1666 13.62 13.62 15.1667 9.99998 15.1667ZM5.99998 1.83333C2.92665 1.83333 1.83331 2.92666 1.83331 6V10C1.83331 13.0733 2.92665 14.1667 5.99998 14.1667H9.99998C13.0733 14.1667 14.1666 13.0733 14.1666 10V6C14.1666 2.92666 13.0733 1.83333 9.99998 1.83333H5.99998Z" fill="#49909D"/>
</svg>
