<svg width="16" height="16" viewBox="0 0 16 16" fill="none" xmlns="http://www.w3.org/2000/svg">
<path d="M8.67384 15C8.27384 15 7.65385 14.8067 7.06051 13.8333L5.88717 11.9333C5.77384 11.7467 5.42717 11.5667 5.21383 11.58L2.98715 11.6934C1.65382 11.76 1.18718 11.2067 1.02052 10.8733C0.853848 10.54 0.707152 9.82668 1.57382 8.81335L2.89385 7.28002C3.02718 7.12002 3.10049 6.77334 3.04049 6.57334L2.36715 4.42002C2.02715 3.34002 2.40716 2.76002 2.66049 2.50669C2.91382 2.25336 3.50049 1.88668 4.58049 2.24668L6.54717 2.89335C6.72717 2.95335 7.0605 2.90002 7.21383 2.79335L9.26718 1.31335C10.2072 0.63335 10.8872 0.81335 11.2005 0.980016C11.5138 1.14668 12.0471 1.60003 12.0271 2.76003L11.9805 5.28668C11.9738 5.47334 12.1271 5.78001 12.2738 5.89335L13.9272 7.14668C14.8272 7.83335 14.8605 8.52001 14.8005 8.87335C14.7405 9.22668 14.4738 9.86667 13.3938 10.2L11.2405 10.8733C11.0405 10.9333 10.7938 11.1933 10.7405 11.3933L10.2272 13.3533C9.88718 14.64 9.22051 14.9267 8.84718 14.98C8.80051 14.9933 8.7405 15 8.67384 15ZM5.23381 10.58C5.80715 10.58 6.44048 10.9267 6.73381 11.4067L7.90715 13.3067C8.24049 13.8533 8.54049 14.02 8.70049 13.9933C8.85382 13.9733 9.09384 13.72 9.26051 13.1067L9.77381 11.1467C9.91381 10.6133 10.4138 10.0867 10.9405 9.92669L13.0938 9.25335C13.5072 9.12669 13.7738 8.92001 13.8138 8.70668C13.8538 8.49335 13.6672 8.21336 13.3205 7.94669L11.6672 6.69335C11.2605 6.38669 10.9672 5.77334 10.9738 5.26668L11.0205 2.74001C11.0272 2.29334 10.9205 1.96002 10.7272 1.86002C10.5338 1.76002 10.2072 1.86001 9.8405 2.12001L7.78716 3.60001C7.38049 3.89334 6.70717 4.00002 6.22051 3.84002L4.25383 3.19335C3.8405 3.06002 3.50718 3.06667 3.35385 3.22001C3.20052 3.37334 3.18714 3.70668 3.31381 4.12001L3.98715 6.27335C4.15382 6.80002 4.00714 7.51336 3.64714 7.92669L2.32716 9.46002C1.90716 9.94668 1.84049 10.2867 1.91383 10.4267C1.98049 10.5667 2.30051 10.72 2.93385 10.6867L5.16049 10.5733C5.18716 10.58 5.21381 10.58 5.23381 10.58Z" fill="#49909D"/>
<path d="M14.6062 15.1667C14.4796 15.1667 14.3529 15.12 14.2529 15.02L12.2329 13C12.0396 12.8067 12.0396 12.4867 12.2329 12.2934C12.4262 12.1 12.7462 12.1 12.9396 12.2934L14.9596 14.3134C15.1529 14.5067 15.1529 14.8267 14.9596 15.02C14.8596 15.12 14.7329 15.1667 14.6062 15.1667Z" fill="#49909D"/>
</svg>
