<svg width="16" height="16" viewBox="0 0 16 16" fill="none" xmlns="http://www.w3.org/2000/svg">
<path d="M10.9203 15.1667H2.16028C1.52694 15.1667 0.94028 14.8734 0.56028 14.36C0.173613 13.84 0.0602857 13.1866 0.253619 12.5666L3.06028 3.54662C3.31361 2.70662 4.08696 2.13329 4.96696 2.13329H13.167C13.9736 2.13329 14.7003 2.61335 15.007 3.36002C15.1736 3.74669 15.207 4.1867 15.107 4.62003L12.8603 13.64C12.647 14.54 11.847 15.1667 10.9203 15.1667ZM4.97361 3.13997C4.54028 3.13997 4.14695 3.42667 4.02028 3.84667L1.21362 12.8667C1.12029 13.18 1.17361 13.5067 1.37361 13.7733C1.56028 14.0267 1.85362 14.1733 2.16695 14.1733H10.927C11.387 14.1733 11.7869 13.86 11.8936 13.4133L14.1403 4.38663C14.1936 4.16663 14.1803 3.94666 14.0936 3.75333C13.9336 3.37333 13.5803 3.13329 13.1736 3.13329H4.97361V3.13997Z" fill="#49909D"/>
<path d="M13.8527 15.1666H10.666C10.3927 15.1666 10.166 14.94 10.166 14.6666C10.166 14.3933 10.3927 14.1666 10.666 14.1666H13.8527C14.126 14.1666 14.3794 14.0533 14.566 13.8533C14.7527 13.6533 14.846 13.3867 14.826 13.1133L14.166 4.03335C14.146 3.76001 14.3527 3.51998 14.626 3.49998C14.8994 3.48665 15.1393 3.68661 15.1593 3.95994L15.8194 13.04C15.8594 13.5867 15.666 14.1333 15.2927 14.5333C14.926 14.94 14.3993 15.1666 13.8527 15.1666Z" fill="#49909D"/>
<path d="M6.45253 4.7533C6.41253 4.7533 6.37253 4.74662 6.33253 4.73995C6.06586 4.67329 5.89921 4.4066 5.96587 4.13326L6.65919 1.2533C6.72586 0.986633 6.99253 0.819934 7.26586 0.886601C7.53253 0.953268 7.69921 1.21996 7.63254 1.49329L6.9392 4.37334C6.88587 4.6 6.67919 4.7533 6.45253 4.7533Z" fill="#49909D"/>
<path d="M10.919 4.75998C10.8857 4.75998 10.8456 4.75997 10.8123 4.74664C10.5456 4.68664 10.3723 4.41996 10.4257 4.15329L11.0523 1.25998C11.1123 0.986648 11.379 0.820011 11.6456 0.873344C11.9123 0.926677 12.0856 1.19994 12.0323 1.46661L11.4056 4.36C11.359 4.6 11.1523 4.75998 10.919 4.75998Z" fill="#49909D"/>
<path d="M10.4661 8.5H5.13281C4.85948 8.5 4.63281 8.27333 4.63281 8C4.63281 7.72667 4.85948 7.5 5.13281 7.5H10.4661C10.7395 7.5 10.9661 7.72667 10.9661 8C10.9661 8.27333 10.7395 8.5 10.4661 8.5Z" fill="#49909D"/>
<path d="M9.80013 11.1667H4.4668C4.19346 11.1667 3.9668 10.94 3.9668 10.6667C3.9668 10.3933 4.19346 10.1667 4.4668 10.1667H9.80013C10.0735 10.1667 10.3001 10.3933 10.3001 10.6667C10.3001 10.94 10.0735 11.1667 9.80013 11.1667Z" fill="#49909D"/>
</svg>
