<svg width="28" height="29" viewBox="0 0 28 29" fill="none" xmlns="http://www.w3.org/2000/svg">
<path d="M15.7499 7.20833H12.2266C10.8033 7.20833 9.62494 6.05331 9.6016 4.62997L9.5666 2.84501C9.55494 2.36668 9.93991 1.95832 10.4182 1.94666C10.4299 1.94666 10.4299 1.94666 10.4416 1.94666C10.9199 1.94666 11.3049 2.33163 11.3166 2.7983L11.3516 4.58333C11.3633 5.05 11.7599 5.44666 12.2266 5.44666H15.7499C16.2399 5.44666 16.6249 5.04999 16.6249 4.57166V2.83333C16.6249 2.355 17.0216 1.95833 17.4999 1.95833C17.9783 1.95833 18.3749 2.355 18.3749 2.83333V4.58333C18.3749 6.03 17.1966 7.20833 15.7499 7.20833Z" fill="#49909D"/>
<path d="M19.8333 25.875C19.6116 25.875 19.39 25.7933 19.215 25.6183L16.8816 23.285C16.5433 22.9467 16.5433 22.3866 16.8816 22.0483L19.215 19.7149C19.5533 19.3766 20.1133 19.3766 20.4516 19.7149C20.7899 20.0533 20.7899 20.6133 20.4516 20.9517L18.7366 22.6666L20.4516 24.3816C20.7899 24.7199 20.7899 25.28 20.4516 25.6183C20.2766 25.7933 20.055 25.875 19.8333 25.875Z" fill="#49909D"/>
<path d="M23.3333 25.875C23.1116 25.875 22.8899 25.7933 22.7149 25.6183C22.3766 25.28 22.3766 24.7199 22.7149 24.3816L24.4299 22.6666L22.7149 20.9517C22.3766 20.6133 22.3766 20.0533 22.7149 19.7149C23.0533 19.3766 23.6133 19.3766 23.9516 19.7149L26.2849 22.0483C26.6233 22.3866 26.6233 22.9467 26.2849 23.285L23.9516 25.6183C23.7766 25.7933 23.5549 25.875 23.3333 25.875Z" fill="#49909D"/>
<path d="M15.1667 27.0417H9.33333C5.075 27.0417 2.625 24.5917 2.625 20.3333L2.625 8.66668C2.625 4.40834 5.075 1.95834 9.33333 1.95834H18.6667C22.925 1.95834 25.375 4.40834 25.375 8.66668V16.8333C25.375 17.3117 24.9783 17.7083 24.5 17.7083C24.0217 17.7083 23.625 17.3117 23.625 16.8333V8.66668C23.625 5.33001 22.0033 3.70834 18.6667 3.70834H9.33333C5.99667 3.70834 4.375 5.33001 4.375 8.66668L4.375 20.3333C4.375 23.67 5.99667 25.2917 9.33333 25.2917H15.1667C15.645 25.2917 16.0417 25.6883 16.0417 26.1667C16.0417 26.645 15.645 27.0417 15.1667 27.0417Z" fill="#49909D"/>
</svg>
