<svg width="24" height="24" viewBox="0 0 24 24" fill="none" xmlns="http://www.w3.org/2000/svg">
<path d="M5.46997 10.75C4.75997 10.75 4.03997 10.49 3.48997 9.96C1.64997 8.21 0.909972 6.3 1.33997 4.43C1.84997 2.23 3.77997 1.25 5.46997 1.25C7.15997 1.25 9.09997 2.24 9.59997 4.43C10.03 6.3 9.27997 8.21 7.44997 9.96C6.89997 10.49 6.18997 10.75 5.46997 10.75ZM2.79997 4.77C2.41997 6.44 3.52997 7.92 4.52997 8.87C5.05997 9.38 5.88997 9.37 6.41997 8.87C7.41997 7.92 8.52997 6.44 8.13997 4.76C7.79997 3.28 6.48997 2.75 5.47997 2.75C4.45997 2.75 3.14997 3.28 2.79997 4.77Z" fill="#856ECA"/>
<path d="M5.51001 6.19995C4.96001 6.19995 4.51001 5.74995 4.51001 5.19995C4.51001 4.64995 4.95001 4.19995 5.51001 4.19995H5.52001C6.07001 4.19995 6.52001 4.64995 6.52001 5.19995C6.52001 5.74995 6.07001 6.19995 5.51001 6.19995Z" fill="#856ECA"/>
<path d="M18.49 22.7501C17.78 22.7501 17.06 22.4901 16.5 21.9601C14.65 20.2101 13.9 18.3001 14.34 16.4201C14.85 14.2301 16.79 13.2401 18.49 13.2401C20.19 13.2401 22.13 14.2301 22.64 16.4201C23.07 18.2901 22.32 20.2101 20.47 21.9501C19.92 22.4901 19.21 22.7501 18.49 22.7501ZM18.49 14.7501C17.47 14.7501 16.15 15.2801 15.8 16.7701C15.41 18.4401 16.53 19.9301 17.53 20.8801C18.06 21.3901 18.9 21.3901 19.44 20.8801C20.44 19.9301 21.56 18.4501 21.17 16.7801C20.84 15.2801 19.52 14.7501 18.49 14.7501Z" fill="#856ECA"/>
<path d="M18.53 18.2C17.98 18.2 17.53 17.75 17.53 17.2C17.53 16.65 17.97 16.2 18.53 16.2H18.54C19.09 16.2 19.54 16.65 19.54 17.2C19.54 17.75 19.08 18.2 18.53 18.2Z" fill="#856ECA"/>
<path d="M11.9999 19.7501H9.31994C8.15994 19.7501 7.14994 19.0501 6.74994 17.9701C6.33994 16.8901 6.63994 15.7001 7.50994 14.9301L15.4999 7.94006C15.9799 7.52006 15.9899 6.95006 15.8499 6.56006C15.6999 6.17006 15.3199 5.75006 14.6799 5.75006H11.9999C11.5899 5.75006 11.2499 5.41006 11.2499 5.00006C11.2499 4.59006 11.5899 4.25006 11.9999 4.25006H14.6799C15.8399 4.25006 16.8499 4.95006 17.2499 6.03006C17.6599 7.11006 17.3599 8.30006 16.4899 9.07006L8.49994 16.0601C8.01994 16.4801 8.00994 17.0501 8.14994 17.4401C8.29994 17.8301 8.67994 18.2501 9.31994 18.2501H11.9999C12.4099 18.2501 12.7499 18.5901 12.7499 19.0001C12.7499 19.4101 12.4099 19.7501 11.9999 19.7501Z" fill="#856ECA"/>
<path d="M11.9999 19.7501H9.31994C8.15994 19.7501 7.14994 19.0501 6.74994 17.9701C6.33994 16.8901 6.63994 15.7001 7.50994 14.9301L15.4999 7.94006C15.9799 7.52006 15.9899 6.95006 15.8499 6.56006C15.6999 6.17006 15.3199 5.75006 14.6799 5.75006H11.9999C11.5899 5.75006 11.2499 5.41006 11.2499 5.00006C11.2499 4.59006 11.5899 4.25006 11.9999 4.25006H14.6799C15.8399 4.25006 16.8499 4.95006 17.2499 6.03006C17.6599 7.11006 17.3599 8.30006 16.4899 9.07006L8.49994 16.0601C8.01994 16.4801 8.00994 17.0501 8.14994 17.4401C8.29994 17.8301 8.67994 18.2501 9.31994 18.2501H11.9999C12.4099 18.2501 12.7499 18.5901 12.7499 19.0001C12.7499 19.4101 12.4099 19.7501 11.9999 19.7501Z" fill="#856ECA"/>
</svg>
