<svg width="821" height="643" viewBox="0 0 821 643" fill="none" xmlns="http://www.w3.org/2000/svg">
<g clip-path="url(#clip0_5792_2798)">
<path d="M819.627 485.263C819.419 487.099 819.188 488.93 818.931 490.747C806.464 579.127 729.3 644 640.044 644H208.564C96.9586 644 7.32723 549.157 16.842 437.957C16.9947 436.193 17.1659 434.428 17.3669 432.66C25.9399 356.668 77.151 295.853 144.455 271.385C131.575 241.385 126.065 207.722 129.992 172.957C142.035 66.0789 238.426 -10.7991 345.304 1.24333C398.217 7.20312 443.781 33.8528 474.834 72.2099C503.468 60.9343 535.191 56.2886 567.898 59.9739C674.775 72.0163 751.631 168.408 739.589 275.29C738.584 284.339 736.931 293.199 734.727 301.794C793.052 341.037 828.029 410.589 819.627 485.263Z" fill="#FFFAF1"/>
<g opacity="0.71">
<path d="M634.97 314.06C634.97 289.644 615.178 269.851 590.761 269.851C588.565 269.851 586.41 270.018 584.303 270.327C584.146 269.743 583.99 269.158 583.83 268.578C585.799 267.766 587.735 266.809 589.622 265.693C610.621 253.233 617.541 226.111 605.082 205.116C592.667 184.191 565.694 177.253 544.728 189.53C556.789 168.438 549.575 141.538 528.524 129.34C507.399 117.096 480.351 124.296 468.107 145.421C467.005 147.32 466.067 149.27 465.278 151.247C465.252 151.239 465.226 151.232 465.196 151.225C465.505 149.114 465.673 146.959 465.673 144.766C465.673 120.35 445.88 100.557 421.464 100.557C397.048 100.557 377.255 120.35 377.255 144.766C377.255 146.743 377.396 148.689 377.649 150.599C376.912 148.82 376.064 147.066 375.073 145.35C362.864 124.206 335.823 116.966 314.683 129.18C293.539 141.39 286.298 168.43 298.512 189.57C299.614 191.48 300.842 193.274 302.171 194.953C302 195.124 301.832 195.303 301.661 195.478C299.975 194.157 298.173 192.939 296.252 191.845C275.038 179.758 248.042 187.158 235.955 208.369C223.867 229.584 231.268 256.58 252.479 268.667C253.287 269.129 254.106 269.549 254.928 269.955C254.013 269.899 253.093 269.862 252.163 269.862C227.746 269.862 207.954 289.655 207.954 314.071C207.954 338.487 227.746 358.28 252.163 358.28C254.359 358.28 256.514 358.112 258.621 357.803C258.777 358.388 258.934 358.972 259.094 359.553C257.125 360.364 255.189 361.321 253.302 362.438C232.303 374.897 225.383 402.02 237.842 423.015C250.257 443.939 277.23 450.878 298.196 438.601C286.134 459.693 293.352 486.592 314.4 498.791C335.525 511.034 362.573 503.835 374.817 482.71C375.918 480.811 376.857 478.86 377.646 476.884C377.672 476.891 377.698 476.899 377.728 476.906C377.419 479.017 377.251 481.172 377.251 483.365C377.251 507.781 397.044 527.574 421.46 527.574C445.876 527.574 465.669 507.781 465.669 483.365C465.669 481.388 465.528 479.441 465.274 477.532C466.011 479.311 466.86 481.068 467.85 482.78C480.06 503.924 507.101 511.165 528.241 498.951C549.385 486.741 556.626 459.701 544.412 438.56C543.31 436.651 542.082 434.856 540.753 433.177C540.924 433.006 541.091 432.827 541.263 432.653C542.953 433.974 544.751 435.191 546.672 436.286C567.886 448.373 594.882 440.972 606.969 419.761C619.056 398.547 611.656 371.551 590.445 359.464C589.637 359.002 588.818 358.581 587.996 358.176C588.911 358.231 589.831 358.272 590.761 358.272C615.178 358.272 634.97 338.48 634.97 314.063V314.06Z" fill="#49909D"/>
</g>
<path d="M103.146 644C103.146 644 69.6467 638.256 55.7989 617.559C36.7357 589.07 55.7989 574.515 55.7989 574.515C55.7989 574.515 21.9796 572.665 12.7551 550.531C3.53063 528.397 25.0544 521.018 25.0544 521.018C25.0544 521.018 -13.0682 490.17 2.91641 465.013C18.9047 439.852 61.3306 468.962 61.3306 468.962C61.3306 468.962 74.8583 453.894 93.9214 465.013C112.985 476.132 130.201 511.18 130.201 511.18C130.201 511.18 146.19 487.813 161.56 506.876C176.934 525.94 197.602 643.996 197.602 643.996H103.142L103.146 644Z" fill="#CAFFCD"/>
<path d="M159.717 639.235C159.605 639.235 159.49 639.22 159.378 639.194C124.427 630.364 104.307 606.577 96.0504 564.33C89.629 531.464 75.2637 506.098 26.0368 489.124C25.3146 488.874 24.9312 488.089 25.1806 487.363C25.43 486.637 26.2155 486.257 26.9414 486.507C77.4191 503.913 92.1604 529.993 98.7679 563.798C106.794 604.869 126.27 627.974 160.06 636.51C160.8 636.696 161.247 637.448 161.061 638.193C160.905 638.818 160.339 639.239 159.721 639.239L159.717 639.235Z" fill="#A5FFA5"/>
<path d="M122.562 554.317C122.562 554.317 92.983 539.925 85.7091 516.953C75.6955 485.327 97.3384 476.955 97.3384 476.955C97.3384 476.955 66.4115 466.1 63.8206 443.039C61.2297 419.977 83.2225 418.935 83.2225 418.935C83.2225 418.935 56.1298 379.968 77.7876 360.908C99.4416 341.849 131.005 380.362 131.005 380.362C131.005 380.362 147.649 370.013 162.356 385.499C177.064 400.981 183.593 438.207 183.593 438.207C183.593 438.207 204.763 420.815 213.899 442.681C223.034 464.547 187.416 573.175 187.416 573.175L122.566 554.317H122.562Z" fill="#A5FFA5"/>
<path d="M176.42 565.171C176.316 565.142 176.212 565.097 176.115 565.041C146.022 547.393 133.753 519.85 137.494 478.362C140.405 446.087 133.913 418.634 92.7562 389.557C92.1532 389.129 92.008 388.295 92.4361 387.692C92.8642 387.089 93.698 386.944 94.3011 387.372C136.504 417.185 143.156 445.406 140.163 478.604C136.522 518.937 148.378 545.669 177.47 562.733C178.107 563.105 178.323 563.928 177.947 564.565C177.63 565.104 176.994 565.339 176.42 565.171Z" fill="#CAFFCD"/>
<path d="M744.603 644C744.603 644 767.058 640.151 776.338 626.277C789.114 607.18 776.338 597.427 776.338 597.427C776.338 597.427 799.004 596.188 805.188 581.353C811.371 566.519 796.946 561.572 796.946 561.572C796.946 561.572 822.497 540.897 811.784 524.034C801.067 507.17 772.63 526.68 772.63 526.68C772.63 526.68 763.562 516.581 750.786 524.034C738.011 531.486 726.471 554.979 726.471 554.979C726.471 554.979 715.754 539.318 705.453 552.094C695.149 564.87 681.294 644 681.294 644H744.607H744.603Z" fill="#A5FFA5"/>
<path d="M706.685 640.806C706.76 640.806 706.838 640.799 706.912 640.776C730.338 634.857 743.825 618.914 749.357 590.6C753.66 568.574 763.286 551.569 796.283 540.193C796.767 540.026 797.024 539.497 796.856 539.013C796.689 538.529 796.16 538.272 795.676 538.44C761.842 550.106 751.962 567.587 747.536 590.243C742.157 617.771 729.102 633.257 706.454 638.978C705.959 639.105 705.658 639.607 705.784 640.106C705.888 640.527 706.268 640.806 706.681 640.806H706.685Z" fill="#CAFFCD"/>
<path d="M736.931 560.928C736.931 560.928 764.359 556.364 775.768 539.49C791.477 516.261 775.943 504.278 775.943 504.278C775.943 504.278 803.616 502.901 811.251 484.831C818.886 466.762 801.312 460.639 801.312 460.639C801.312 460.639 832.623 435.56 819.646 414.911C806.669 394.266 771.845 417.904 771.845 417.904C771.845 417.904 760.841 405.523 745.202 414.542C729.564 423.562 715.336 452.162 715.336 452.162C715.336 452.162 702.352 432.984 689.699 448.514C677.046 464.045 684.112 560.66 684.112 560.66L736.927 560.92L736.931 560.928Z" fill="#CAFFCD"/>
<path d="M690.675 556.799C690.768 556.799 690.861 556.788 690.954 556.766C719.58 549.686 736.138 530.306 743.062 495.783C748.449 468.925 760.301 448.231 800.639 434.547C801.231 434.346 801.547 433.702 801.346 433.11C801.145 432.519 800.501 432.202 799.909 432.403C758.544 446.437 746.379 467.711 740.84 495.336C734.109 528.903 718.084 547.724 690.407 554.57C689.8 554.718 689.431 555.333 689.58 555.939C689.707 556.453 690.165 556.796 690.671 556.799H690.675Z" fill="#A5FFA5"/>
<path d="M205.695 187.72C204.187 190.33 200.818 191.234 198.209 189.727L173.081 175.22C170.472 173.712 169.571 170.344 171.075 167.734C172.583 165.125 175.951 164.22 178.561 165.728L203.688 180.234C206.298 181.742 207.199 185.111 205.695 187.72Z" fill="#407BBA"/>
<path d="M469.291 98.5505C466.35 97.8916 464.485 94.9471 465.144 92.0063L471.495 63.6963C472.154 60.7555 475.098 58.8905 478.039 59.5494C480.98 60.2083 482.845 63.1528 482.186 66.0936L475.835 94.4036C475.176 97.3444 472.232 99.2094 469.291 98.5505Z" fill="#407BBA"/>
<path d="M163.976 295.682L165.651 304.917C165.83 305.9 166.481 306.734 167.393 307.147L175.951 311.004C178.248 312.038 178.363 315.258 176.145 316.453L167.881 320.902C166.998 321.374 166.407 322.253 166.299 323.247L165.275 332.576C164.999 335.081 161.973 336.183 160.153 334.441L153.37 327.956C152.648 327.264 151.632 326.973 150.649 327.178L141.458 329.088C138.99 329.601 137.006 327.063 138.1 324.792L142.173 316.334C142.608 315.433 142.571 314.376 142.072 313.505L137.415 305.356C136.165 303.168 137.966 300.498 140.464 300.837L149.767 302.099C150.757 302.233 151.751 301.872 152.425 301.131L158.734 294.185C160.428 292.32 163.525 293.206 163.976 295.685V295.682Z" fill="#CC5E5E"/>
<path d="M696.341 207.71L703.332 213.975C704.076 214.642 705.104 214.902 706.075 214.664L715.199 212.457C717.649 211.865 719.715 214.337 718.695 216.641L714.898 225.225C714.492 226.141 714.563 227.194 715.088 228.047L720.005 236.039C721.327 238.183 719.611 240.912 717.105 240.655L707.769 239.698C706.775 239.598 705.792 239.989 705.145 240.752L699.062 247.899C697.428 249.816 694.305 249.031 693.776 246.57L691.803 237.394C691.591 236.415 690.913 235.603 689.99 235.224L681.313 231.646C678.983 230.686 678.767 227.473 680.944 226.208L689.06 221.495C689.923 220.992 690.489 220.095 690.564 219.098L691.282 209.739C691.476 207.227 694.465 206.028 696.341 207.707V207.71Z" fill="#CC5E5E"/>
<path d="M586.682 101.979C581.641 100.025 575.976 102.5 573.977 107.511L573.94 107.481H573.895C575.801 102.43 573.288 96.7787 568.248 94.8244C563.178 92.8589 557.475 95.3716 555.509 100.442C554.78 102.322 554.668 104.291 555.074 106.122C555.226 106.811 564.093 132.861 564.093 132.861C564.093 132.861 588.208 119.609 588.785 119.203C590.319 118.124 591.566 116.598 592.295 114.714C594.261 109.644 591.748 103.941 586.678 101.975L586.682 101.979Z" fill="#F0A860"/>
<path d="M321.049 493.401C315.826 494.797 312.71 500.138 314.054 505.361H314.01L313.969 505.384C312.532 500.183 307.168 497.105 301.945 498.497C296.692 499.9 293.569 505.294 294.973 510.547C295.494 512.497 296.562 514.15 297.973 515.39C298.502 515.855 321.03 531.657 321.03 531.657C321.03 531.657 332.686 506.731 332.913 506.065C333.516 504.289 333.62 502.32 333.099 500.369C331.695 495.117 326.301 491.994 321.049 493.397V493.401Z" fill="#F0A860"/>
<path d="M241.386 125.416C240.932 125.416 240.489 125.2 240.213 124.802C239.767 124.154 239.93 123.268 240.578 122.825C254.642 113.136 262.902 96.8905 265.813 81.9407C258.301 80.9766 251.266 78.8622 245.421 75.9214C237.135 71.7521 232.325 66.213 232.229 60.7297C232.169 57.3534 233.874 52.354 242.339 47.712C252.207 42.3031 260.691 43.7661 265.609 51.7435C269.547 58.1276 270.831 68.2902 269.234 79.3461C282.382 80.4108 296.763 77.8608 307.926 69.8797C308.567 69.4218 309.453 69.5707 309.911 70.2073C310.368 70.8476 310.22 71.7335 309.583 72.1914C297.626 80.7421 282.576 83.4595 268.754 82.2534C265.81 97.9142 257.173 114.848 242.201 125.163C241.956 125.334 241.673 125.416 241.397 125.416H241.386ZM253.317 47.3025C250.462 47.3025 247.242 48.2666 243.701 50.2098C237.991 53.3405 235.006 56.9625 235.069 60.6813C235.147 65.0739 239.383 69.7048 246.694 73.3826C252.207 76.1559 259.012 78.1549 266.308 79.0521C267.879 68.6103 266.781 59.0806 263.181 53.2399C260.747 49.2903 257.408 47.3062 253.317 47.3062V47.3025Z" fill="#FEB664"/>
<path d="M629.023 318.33C628.844 317.913 628.87 317.421 629.127 317.008C629.547 316.346 630.426 316.145 631.089 316.565C645.525 325.697 663.706 326.914 678.596 323.72C676.533 316.431 675.714 309.131 676.124 302.602C676.705 293.344 679.91 286.744 684.917 284.503C687.999 283.122 693.266 282.727 700.857 288.691C709.709 295.645 711.693 304.02 706.284 311.674C701.958 317.801 693.117 322.975 682.322 325.846C686.506 338.357 694.495 350.582 706.221 357.714C706.894 358.124 707.103 358.998 706.697 359.669C706.288 360.339 705.413 360.554 704.743 360.145C692.183 352.506 683.777 339.731 679.459 326.545C663.899 329.989 644.936 328.693 629.57 318.97C629.317 318.81 629.131 318.583 629.023 318.326V318.33ZM705.551 298.634C704.43 296.009 702.279 293.426 699.103 290.932C693.981 286.908 689.477 285.586 686.085 287.105C682.076 288.903 679.482 294.617 678.968 302.784C678.581 308.945 679.415 315.988 681.455 323.05C691.673 320.396 700.008 315.642 703.969 310.04C706.645 306.25 707.159 302.401 705.554 298.637L705.551 298.634Z" fill="#FEB664"/>
<path d="M266.398 479.758C266.398 479.758 279.8 373.524 261.459 370.549C254.397 369.403 253.891 374.51 252.018 377.652C251.65 366.689 247.856 358.202 242.861 357.989C239.719 357.855 236.804 361.09 234.731 366.164C234.753 354.319 230.815 344.875 225.536 344.652C222.32 344.514 219.338 347.901 217.257 353.191C217.257 353.191 225.715 303.119 214.301 299.627C186.531 291.133 183.106 404.692 174.109 413.53C159.707 427.675 127 386.995 116.294 397.456C105.588 407.916 149.909 476.675 163.221 490.884C176.532 505.093 193.343 512.724 193.343 512.724L189.077 576.101L277.667 557.153L266.395 479.761L266.398 479.758Z" fill="#E88764"/>
<path d="M255.402 420.275C255.89 420.204 256.333 419.899 256.56 419.419C256.925 418.656 256.601 417.744 255.838 417.383C245.668 412.554 250.827 389.151 253.675 380.541C253.939 379.74 253.507 378.873 252.703 378.609C251.907 378.344 251.039 378.772 250.775 379.58C250.321 380.946 239.849 413.172 254.527 420.145C254.814 420.279 255.119 420.32 255.406 420.275H255.402Z" fill="#803B34"/>
<path d="M236.718 411.285C237.206 411.214 237.649 410.909 237.876 410.429C238.241 409.666 237.917 408.754 237.154 408.393C226.984 403.565 232.143 380.161 234.991 371.551C235.255 370.75 234.823 369.883 234.019 369.619C233.226 369.354 232.355 369.782 232.091 370.59C231.637 371.956 221.165 404.182 235.843 411.155C236.13 411.289 236.435 411.33 236.722 411.285H236.718Z" fill="#803B34"/>
<path d="M219.077 396.585C219.564 396.514 220.007 396.209 220.234 395.729C220.599 394.966 220.275 394.054 219.512 393.692C209.342 388.864 214.502 365.461 217.346 356.85C217.61 356.05 217.178 355.183 216.374 354.918C215.577 354.654 214.71 355.082 214.446 355.89C213.992 357.256 203.524 389.482 218.198 396.455C218.485 396.589 218.79 396.63 219.077 396.585Z" fill="#803B34"/>
<path d="M223.183 488.364C223.901 488.26 224.463 487.649 224.486 486.897C224.512 486.052 223.845 485.349 223.004 485.323C222.61 485.304 212.991 484.597 211.524 465.385C210.348 450 197.032 441.367 184.152 433.021C178.631 429.444 172.925 425.743 168.193 421.548C167.564 420.99 166.597 421.046 166.038 421.678C165.476 422.311 165.536 423.275 166.168 423.837C171.071 428.185 176.874 431.949 182.492 435.59C195.308 443.898 207.418 451.742 208.475 465.623C210.169 487.75 222.397 488.368 222.915 488.383C223.008 488.383 223.097 488.383 223.187 488.368L223.183 488.364Z" fill="#803B34"/>
<path d="M125.302 427.422C125.414 427.408 125.529 427.374 125.641 427.333C125.801 427.27 129.602 425.721 130.961 421.265C132.334 416.754 130.704 411.088 126.121 404.432C125.641 403.736 124.688 403.568 123.992 404.041C123.296 404.521 123.121 405.471 123.601 406.167C127.558 411.903 129.096 416.798 128.049 420.32C127.149 423.369 124.61 424.448 124.506 424.493C123.728 424.813 123.352 425.703 123.664 426.481C123.936 427.147 124.617 427.523 125.299 427.422H125.302Z" fill="#803B34"/>
<path d="M168.108 644L178.751 551.793L291.674 527.566L334.621 644H168.108Z" fill="#913F60"/>
<path d="M480.686 354.825C486.989 358.842 491.489 363.127 491.348 367.151C490.875 380.142 486.01 412.413 481.602 433.341C478.483 448.217 477.425 473.928 477.221 492.894L437.308 490.802L435.636 441.825L398.124 385.168L397.949 374.733L397.365 341.182L410.915 329.251C410.915 329.251 479.104 353.813 480.686 354.825Z" fill="#E88764"/>
<path d="M463.759 282.117L452.603 292.357L446.621 285.843L455.008 278.141L456.586 213.596C456.594 213.227 456.463 212.877 456.214 212.606L418.091 171.081C417.566 170.507 416.669 170.47 416.096 170.995L403.13 182.9C402.877 183.134 402.717 183.451 402.68 183.789L399.728 212.129L390.932 211.213L393.884 182.877C394.14 180.387 395.302 178.083 397.148 176.385L410.114 164.481C414.279 160.657 420.779 160.933 424.602 165.098L462.725 206.623C464.53 208.589 465.487 211.143 465.423 213.808L463.752 282.109L463.759 282.117Z" fill="#E07D2B"/>
<path d="M371.255 367.047L382.411 356.806L376.429 350.291L368.042 357.993L303.598 354.066C303.233 354.044 302.89 353.884 302.645 353.612L264.522 312.087C263.997 311.514 264.034 310.62 264.608 310.092L277.573 298.187C277.826 297.952 278.158 297.822 278.5 297.815L306.985 297.286L306.821 288.445L278.336 288.974C275.835 289.018 273.438 289.979 271.591 291.673L258.626 303.577C254.46 307.4 254.185 313.9 258.008 318.065L296.13 359.59C297.936 361.556 300.396 362.728 303.062 362.892L371.259 367.047H371.255Z" fill="#E07D2B"/>
<path d="M373.205 174.974L271.699 268.172L344.757 338.982C368.28 364.601 408.115 366.302 433.734 342.779C459.352 319.256 461.053 279.421 437.531 253.803L373.201 174.974H373.205Z" fill="#F0A860"/>
<path d="M462.883 368.782C465.246 363.693 463.037 357.653 457.948 355.289C452.86 352.926 446.819 355.136 444.456 360.224C442.092 365.313 444.302 371.354 449.391 373.717C454.479 376.08 460.52 373.871 462.883 368.782Z" fill="#F0A860"/>
<path d="M465.364 363.334L451.559 376.011C448.76 378.581 448.575 382.933 451.145 385.731L462.165 397.732C464.735 400.531 469.086 400.716 471.885 398.147L485.69 385.47C488.489 382.9 488.674 378.548 486.105 375.75L475.084 363.748C472.514 360.95 468.163 360.764 465.364 363.334Z" fill="#F0A860"/>
<path d="M480.198 374.239L470.844 382.823L470.471 383.165L461.12 391.753L458.593 434.06L492.256 470.719L524.054 441.527L524.426 441.181L556.224 411.989L522.565 375.326L480.198 374.239Z" fill="#F0A860"/>
<path d="M441.402 331.604L431.675 340.534L421.948 349.465L421.319 356.069C420.936 360.1 423.534 363.815 427.458 364.832L436.217 367.102C438.923 367.806 441.801 367.087 443.863 365.196L449.536 359.985L455.209 354.773C457.268 352.882 458.228 350.075 457.763 347.317L456.244 338.394C455.567 334.4 452.086 331.492 448.036 331.533L441.402 331.6V331.604Z" fill="#F0A860"/>
<path d="M563.405 416.772L496.41 478.28C494.869 479.694 492.081 479.169 490.182 477.103C488.284 475.037 487.997 472.216 489.538 470.801L556.533 409.294C558.074 407.879 560.862 408.404 562.761 410.47C564.659 412.536 564.946 415.358 563.405 416.772Z" fill="#EF9341"/>
<path d="M404.378 302.635C397.807 302.486 385.474 318.739 379.604 328.514C379.604 328.514 381.015 328.28 383.185 327.978C390.474 326.999 406.399 325.38 406.738 329.892C407.128 335.003 408.77 340.259 410.948 344.76C414.361 351.836 419.111 357.025 422.383 356.795C422.7 356.772 423.02 356.635 423.34 356.407C424.502 373.62 434.433 377.827 440.535 377.198C441.536 377.094 442.56 376.584 443.572 375.735C445.62 378.854 449.379 382.983 455.198 383.634C462.952 384.501 468.469 375.787 471.342 368.915C478.486 379.752 490.521 375.381 491.336 367.147C491.895 361.507 492.248 339.373 490.744 334.288C489.475 330.003 483.508 327.48 477.012 330.647C476.893 329.587 476.725 328.611 476.498 327.755C474.324 319.595 461.47 315.087 453.143 318.497C452.707 317.19 452.238 316.148 451.751 315.445C449.785 312.612 439.738 307.069 434.266 305.863C431.731 305.304 426.72 307.047 421.189 310.326C415.002 306.272 407.851 302.71 404.37 302.635H404.378Z" fill="#E88764"/>
<path d="M443.163 378.482C434.862 381.181 425.902 371.145 425.514 370.702C424.841 369.939 424.915 368.774 425.678 368.1C426.441 367.426 427.606 367.501 428.28 368.264C430.525 370.806 437.43 376.915 442.482 374.8C448.24 372.355 455.7 348.307 453.184 328.004C453.057 326.992 453.768 326.076 454.788 325.946C455.801 325.819 456.72 326.538 456.847 327.55C459.334 347.596 452.451 374.573 443.926 378.195C443.673 378.303 443.416 378.4 443.163 378.482Z" fill="#803B34"/>
<path d="M460.734 384.476C451.699 387.413 445.732 381.162 445.471 380.883C444.775 380.139 444.816 378.97 445.561 378.277C446.305 377.581 447.474 377.626 448.166 378.367C448.364 378.575 453.233 383.578 460.559 380.615C467.047 377.98 476.662 353.392 474.354 334.78C474.228 333.771 474.943 332.848 475.959 332.721C476.971 332.594 477.891 333.313 478.017 334.325C480.43 353.779 470.498 380.559 461.947 384.033C461.538 384.2 461.132 384.345 460.734 384.476Z" fill="#803B34"/>
<path d="M422.961 358.555C422.294 358.771 421.535 358.596 421.029 358.049C420.34 357.297 420.392 356.132 421.144 355.443C431.258 346.178 431.824 326.769 430.346 320.608C428.891 314.54 420.813 312.154 420.731 312.132C419.752 311.849 419.186 310.832 419.465 309.853C419.744 308.874 420.764 308.308 421.74 308.584C422.157 308.703 431.973 311.566 433.935 319.748C435.614 326.743 435.033 347.726 423.638 358.168C423.437 358.351 423.206 358.485 422.965 358.563L422.961 358.555Z" fill="#803B34"/>
<path d="M416.521 314.447C417.641 315.117 418.996 318.553 419.026 318.646V318.657C419.19 319.163 419.354 319.692 419.529 320.239V320.25C419.685 320.738 422.633 329.505 413.963 338.733C412.649 340.129 410.9 340.814 409.463 341.595C406.779 343.066 404.761 343.903 404.761 343.903C404.761 343.903 405.234 350.731 405.07 355.045C404.899 359.371 403.023 366.071 403.023 366.071C403.023 366.071 407.427 369.425 408.811 372.117C410.017 374.465 409.999 379.882 409.969 381.188C409.969 381.371 409.969 381.471 409.969 381.471C409.969 381.471 423.936 384.196 431.057 391.329C438.167 398.454 443.703 405.619 446.51 412.577C447.049 413.928 447.124 418.351 446.882 424.575C446.104 444.393 443.074 474.192 441.272 491.015L384.016 488.089C395.753 451.388 391.796 449.806 388.133 437.786C385.117 427.891 373.209 396.22 368.694 379.331C367.387 374.469 366.199 371.093 366.185 369.935C366.155 366.741 365.578 353.303 369.635 341.863V341.852C369.609 341.782 374.4 329.609 377.486 327.863C377.497 327.863 377.572 327.826 377.583 327.822C377.717 327.744 383.286 325.16 383.334 325.134C394.628 320.325 413.881 312.857 416.521 314.447Z" fill="#E88764"/>
<path d="M447.351 428.722C447.206 428.77 447.053 428.8 446.893 428.807C445.877 428.871 445.002 428.096 444.938 427.08C442.362 385.432 411.19 383.102 409.865 383.024L407.94 382.908L408.137 380.987C408.141 380.939 408.606 376.256 407.125 372.846C405.714 369.6 402.207 367.72 402.174 367.702L401.102 367.136L401.191 365.922L403.038 342.347L404.422 342.083C404.884 341.998 415.921 339.723 417.555 329.393C419.018 320.15 417.094 316.896 416.297 316.319C413.431 316.885 396.527 322.439 386.152 325.938C386.145 325.938 386.137 325.942 386.133 325.946C385.173 326.259 384.138 325.741 383.814 324.781C383.49 323.817 384.008 322.771 384.972 322.443C414.916 312.34 416.282 312.541 416.796 312.615C417.831 312.768 418.847 313.457 419.659 314.562C421.151 316.595 422.633 320.917 421.204 329.97C419.525 340.59 410.133 344.309 406.507 345.363L404.962 365.081C406.459 366.075 409.131 368.197 410.512 371.372C411.748 374.216 411.931 377.555 411.905 379.569C419.234 380.76 446.215 387.8 448.627 426.849C448.68 427.705 448.14 428.461 447.358 428.718L447.351 428.722Z" fill="#803B34"/>
<path d="M406.857 328.246C404.701 328.946 402.453 329.229 400.547 328.5C399.073 327.937 397.171 326.53 396.504 323.031C396.314 322.03 396.973 321.077 397.971 320.872C398.972 320.682 399.936 321.337 400.13 322.339C400.551 324.55 401.537 324.926 401.861 325.049C404.526 326.065 410.043 322.986 412.895 320.809C413.702 320.187 414.86 320.343 415.482 321.151C416.1 321.959 415.947 323.117 415.139 323.735C414.54 324.193 410.858 326.94 406.86 328.239L406.857 328.246Z" fill="#803B34"/>
<path d="M338.518 644L368.056 471.002L488.414 477.792L515.011 644H338.518Z" fill="#CC5E5E"/>
<path d="M619.53 415.242C612.509 417.8 607.189 421.008 606.456 424.969C604.107 437.756 601.874 470.313 601.643 491.699C601.472 506.895 596.934 532.23 593.029 550.791L632.447 557.387L644.679 509.932L693.567 462.734L695.998 452.583L703.83 419.955L693.184 405.374C693.184 405.374 621.294 414.594 619.53 415.242Z" fill="#E88764"/>
<path d="M705.323 380.801C711.767 382.078 720.291 400.616 723.91 411.43C723.91 411.43 722.585 410.898 720.526 410.131C713.621 407.596 698.425 402.571 697.115 406.904C695.626 411.806 692.886 416.586 689.785 420.506C684.92 426.678 679.161 430.713 676.015 429.782C675.71 429.689 675.427 429.488 675.163 429.198C670.301 445.752 659.7 447.71 653.878 445.774C652.921 445.458 652.035 444.736 651.227 443.686C648.554 446.288 643.987 449.504 638.165 448.883C630.407 448.053 626.904 438.352 625.586 431.018C616.269 440.053 605.462 433.181 606.449 424.965C607.122 419.337 611.567 397.653 614.139 393.011C616.306 389.102 622.679 387.934 628.333 392.43C628.68 391.418 629.056 390.506 629.461 389.717C633.348 382.219 646.872 380.6 654.265 385.734C654.972 384.553 655.657 383.634 656.286 383.053C658.817 380.712 669.825 377.477 675.431 377.484C678.029 377.484 682.541 380.273 687.232 384.673C694.148 382.056 701.902 380.124 705.316 380.805L705.323 380.801Z" fill="#E88764"/>
<path d="M651.041 446.459C658.561 450.889 669.483 443.031 669.955 442.685C670.778 442.085 670.957 440.931 670.357 440.109C669.758 439.286 668.604 439.104 667.781 439.703C665.038 441.698 656.979 446.169 652.5 443.012C647.408 439.379 645.327 414.286 652.18 395.01C652.523 394.05 652.028 393.004 651.06 392.654C650.099 392.311 649.046 392.814 648.703 393.774C641.939 412.808 642.818 440.634 650.356 446.016C650.579 446.177 650.81 446.325 651.041 446.463V446.459Z" fill="#803B34"/>
<path d="M632.592 448.507C640.778 453.331 647.958 448.518 648.271 448.302C649.112 447.725 649.325 446.575 648.748 445.737C648.174 444.896 647.02 444.684 646.183 445.261C645.945 445.421 640.108 449.251 633.597 444.773C627.834 440.797 623.766 414.71 630.046 397.039C630.388 396.078 629.889 395.025 628.925 394.683C627.965 394.34 626.911 394.843 626.569 395.803C620.002 414.274 623.903 442.569 631.501 447.811C631.866 448.064 632.231 448.295 632.592 448.507Z" fill="#803B34"/>
<path d="M675.081 431.376C675.684 431.733 676.466 431.726 677.076 431.297C677.91 430.713 678.115 429.563 677.53 428.729C669.661 417.494 673.309 398.42 676.086 392.724C678.822 387.115 687.224 386.534 687.31 386.53C688.326 386.467 689.1 385.596 689.041 384.58C688.981 383.563 688.106 382.789 687.094 382.849C686.662 382.875 676.458 383.545 672.769 391.109C669.616 397.575 665.641 418.187 674.508 430.847C674.664 431.07 674.861 431.249 675.081 431.379V431.376Z" fill="#803B34"/>
<path d="M690.913 389.706C689.674 390.115 687.608 393.179 687.559 393.264V393.276C687.287 393.737 687.012 394.214 686.725 394.712V394.724C686.465 395.167 681.689 403.084 688.155 413.973C689.134 415.622 690.694 416.668 691.926 417.744C694.23 419.761 696.017 421.012 696.017 421.012C696.017 421.012 694.077 427.575 693.303 431.822C692.532 436.085 692.916 443.031 692.916 443.031C692.916 443.031 687.89 445.35 685.958 447.68C684.272 449.713 683.118 455.003 682.865 456.287C682.824 456.466 682.802 456.566 682.802 456.566C682.802 456.566 668.578 456.205 660.079 461.625C651.596 467.041 644.642 472.841 640.395 479.028C639.576 480.23 638.544 484.53 637.435 490.661C633.906 510.178 630.414 539.925 628.531 556.74L685.061 566.273C681.543 527.901 685.754 527.213 691.929 516.272C697.014 507.267 715.497 478.92 723.56 463.408C725.886 458.945 727.777 455.904 728.042 454.779C728.764 451.667 732.233 438.676 730.752 426.626V426.615C730.796 426.548 728.753 413.627 726.117 411.255C726.106 411.252 726.043 411.2 726.032 411.196C725.916 411.092 721.04 407.362 720.999 407.324C711.015 400.185 693.832 388.727 690.913 389.709V389.706Z" fill="#E88764"/>
<path d="M636.08 494.603C636.21 494.681 636.356 494.745 636.508 494.785C637.487 495.068 638.511 494.503 638.79 493.524C650.319 453.421 681.257 457.891 682.567 458.104L684.469 458.409L684.693 456.492C684.7 456.443 685.259 451.771 687.444 448.764C689.525 445.901 693.355 444.821 693.392 444.81L694.561 444.49L694.736 443.288L698.034 419.873L696.739 419.315C696.307 419.128 686.022 414.52 686.662 404.082C687.235 394.742 689.815 391.98 690.72 391.589C693.396 392.762 708.699 401.841 718.069 407.503C718.077 407.503 718.08 407.51 718.088 407.514C718.959 408.028 720.079 407.745 720.604 406.878C721.129 406.007 720.85 404.871 719.979 404.346C692.931 388.004 691.553 387.904 691.036 387.867C689.994 387.792 688.851 388.246 687.82 389.147C685.921 390.807 683.539 394.709 682.977 403.855C682.318 414.587 690.682 420.249 693.995 422.062L691.237 441.646C689.562 442.294 686.491 443.787 684.454 446.586C682.63 449.095 681.73 452.315 681.324 454.288C673.912 453.867 646.045 454.898 635.239 492.5C635.001 493.326 635.365 494.182 636.073 494.599L636.08 494.603Z" fill="#803B34"/>
<path d="M697.36 405.269C699.315 406.42 701.448 407.183 703.465 406.885C705.029 406.654 707.188 405.694 708.595 402.422C708.997 401.487 708.562 400.412 707.631 399.998C706.697 399.596 705.61 400.028 705.208 400.963C704.318 403.029 703.276 403.181 702.933 403.233C700.111 403.65 695.391 399.451 693.08 396.704C692.424 395.922 691.259 395.825 690.481 396.481C689.703 397.136 689.603 398.297 690.258 399.079C690.742 399.656 693.742 403.136 697.364 405.269H697.36Z" fill="#803B34"/>
<path d="M699.881 644L704.344 553.04L585.372 533.619L541.688 644H699.881Z" fill="#CC5E5E"/>
</g>
<defs>
<clipPath id="clip0_5792_2798">
<rect width="823.799" height="644" fill="white" transform="translate(-1)"/>
</clipPath>
</defs>
</svg>
