<svg width="975" height="415" viewBox="0 0 975 415" fill="none" xmlns="http://www.w3.org/2000/svg">
<g clip-path="url(#clip0_5337_55035)">
<path d="M312.973 331.077H268.503V409.125H160.682V331.077H0V251.35L167.814 5.87451H268.503V249.671H312.973V331.077ZM160.682 249.671V202.674C160.682 193.862 161.102 182.113 161.521 167.007C162.36 151.901 162.78 144.348 163.199 143.508H160.262C153.969 157.775 146.837 170.783 138.866 183.372L94.3954 249.671H160.682Z" fill="#49909D"/>
<path d="M632.659 208.129C632.659 279.464 620.493 331.916 596.999 365.066C573.085 398.215 536.586 415 487.08 415C438.834 415 402.754 397.796 378.001 362.968C353.668 328.14 341.502 276.527 341.502 208.129C341.502 136.375 353.249 83.9231 377.582 50.3539C401.495 16.7846 437.995 0 487.5 0C535.327 0 571.827 17.6239 596.16 52.452C620.493 87.2801 632.659 138.893 632.659 208.129ZM449.742 208.129C449.742 253.868 452.679 285.339 458.133 302.123C464.006 319.328 473.236 327.72 486.661 327.72C500.086 327.72 509.735 318.908 515.609 301.284C521.063 283.66 524 252.609 524 208.129C524 163.231 521.063 132.179 515.609 114.135C509.735 96.092 500.506 87.2801 487.08 87.2801C473.655 87.2801 464.006 96.092 458.552 113.296C452.679 130.501 449.742 161.972 449.742 208.129Z" fill="#49909D"/>
<path d="M975 331.077H930.529V409.125H822.709V331.077H662.027V251.35L829.841 5.87451H930.529V249.671H975V331.077ZM823.128 249.671V202.674C823.128 193.862 823.548 182.113 823.967 167.007C824.806 151.901 825.226 144.348 825.645 143.508H822.709C816.416 157.775 809.284 170.783 801.312 183.372L756.422 250.091H823.128V249.671Z" fill="#49909D"/>
</g>
<g clip-path="url(#clip1_5337_55035)">
<path d="M596.553 246.289C632.167 246.289 661.038 217.237 661.038 181.4C661.038 145.563 632.167 116.511 596.553 116.511C560.939 116.511 532.068 145.563 532.068 181.4C532.068 217.237 560.939 246.289 596.553 246.289Z" fill="white"/>
<path d="M384.395 246.289C420.009 246.289 448.88 217.237 448.88 181.4C448.88 145.563 420.009 116.511 384.395 116.511C348.781 116.511 319.91 145.563 319.91 181.4C319.91 217.237 348.781 246.289 384.395 246.289Z" fill="white"/>
<path d="M422.307 129.029C428.908 139.248 432.717 151.34 432.717 164.454C432.717 200.304 403.859 229.343 368.231 229.343C354.014 229.343 340.897 224.659 330.234 216.825C341.743 234.537 361.63 246.289 384.31 246.289C419.938 246.289 448.795 217.251 448.795 181.4C448.795 159.855 438.386 140.78 422.307 129.029Z" fill="#EFEFEF"/>
<path d="M634.465 129.029C641.066 139.248 644.874 151.34 644.874 164.454C644.874 200.304 616.017 229.343 580.389 229.343C566.172 229.343 553.055 224.659 542.392 216.825C553.901 234.622 573.788 246.289 596.468 246.289C632.096 246.289 660.953 217.251 660.953 181.4C660.953 159.855 650.46 140.78 634.465 129.029Z" fill="#EFEFEF"/>
<path d="M384.395 249.269C347.244 249.269 316.948 218.783 316.948 181.4C316.948 144.016 347.159 113.53 384.395 113.53C421.546 113.53 451.842 144.016 451.842 181.4C451.842 218.783 421.546 249.269 384.395 249.269ZM384.395 119.491C350.46 119.491 322.872 147.252 322.872 181.4C322.872 215.547 350.46 243.308 384.395 243.308C418.33 243.308 445.918 215.547 445.918 181.4C445.918 147.252 418.33 119.491 384.395 119.491Z" fill="#231F20"/>
<path d="M384.395 222.104C401.641 222.104 415.622 208.036 415.622 190.682C415.622 173.327 401.641 159.259 384.395 159.259C367.149 159.259 353.168 173.327 353.168 190.682C353.168 208.036 367.149 222.104 384.395 222.104Z" fill="#231F20"/>
<path d="M376.694 197.835C383.751 197.835 389.472 192.078 389.472 184.976C389.472 177.875 383.751 172.118 376.694 172.118C369.636 172.118 363.915 177.875 363.915 184.976C363.915 192.078 369.636 197.835 376.694 197.835Z" fill="white"/>
<path d="M596.553 249.269C559.402 249.269 529.106 218.783 529.106 181.4C529.106 144.016 559.402 113.53 596.553 113.53C633.704 113.53 664 144.016 664 181.4C664 218.783 633.704 249.269 596.553 249.269ZM596.553 119.491C562.618 119.491 535.03 147.252 535.03 181.4C535.03 215.547 562.618 243.308 596.553 243.308C630.488 243.308 658.076 215.547 658.076 181.4C658.076 147.252 630.488 119.491 596.553 119.491Z" fill="#231F20"/>
<path d="M596.553 222.104C613.799 222.104 627.78 208.036 627.78 190.682C627.78 173.327 613.799 159.259 596.553 159.259C579.307 159.259 565.326 173.327 565.326 190.682C565.326 208.036 579.307 222.104 596.553 222.104Z" fill="#231F20"/>
<path d="M588.852 197.835C595.909 197.835 601.63 192.078 601.63 184.976C601.63 177.875 595.909 172.118 588.852 172.118C581.794 172.118 576.073 177.875 576.073 184.976C576.073 192.078 581.794 197.835 588.852 197.835Z" fill="white"/>
<path d="M307.639 44.7242C320.841 57.8382 333.873 35.4422 376.355 29.8219C411.814 25.1383 433.309 40.0406 439.825 29.5664C446.257 19.0071 418.753 3.08287 366.623 7.85161C327.949 11.4282 292.322 29.5664 307.639 44.7242Z" fill="#231F20"/>
<path d="M654.353 38.8485C637.85 29.4813 630.234 54.5172 588.767 70.8672C554.24 84.4922 528.852 75.4656 524.959 87.3023C520.982 99.139 552.632 107.569 603.915 89.6867C642.082 76.3172 673.478 49.6633 654.353 38.8485Z" fill="#231F20"/>
<path d="M366.37 393.098C366.37 393.098 413.676 297.382 497.54 299.511C581.405 301.725 609.839 360.313 609.839 360.313C609.839 360.313 573.958 325.91 504.903 331.189C415.622 338.002 366.37 393.098 366.37 393.098Z" fill="#231F20"/>
<path d="M605.693 334.851C610.262 340.216 613.394 346.773 614.917 353.671C616.271 359.887 616.863 368.147 612.124 373.171C609.924 375.556 606.623 377.003 603.408 376.237C600.7 375.556 599.515 379.728 602.223 380.41C605.946 381.346 609.924 380.41 613.055 378.11C616.355 375.641 618.471 371.979 619.402 367.892C621.264 359.887 619.317 351.031 616.102 343.537C614.24 339.194 611.701 335.277 608.739 331.7C607.977 330.764 606.454 330.934 605.693 331.7C604.762 332.637 604.931 333.914 605.693 334.851Z" fill="#231F20"/>
<path d="M371.786 403.572C365.777 404.424 359.176 401.528 355.537 396.589C351.645 391.224 351.221 383.731 354.353 377.855C355.707 375.385 351.983 373.171 350.629 375.641C347.582 381.261 347.075 388.244 349.444 394.205C351.729 400.166 356.553 404.594 362.561 406.808C365.946 408 369.416 408.256 372.97 407.745C374.155 407.574 374.747 406.127 374.494 405.02C374.155 403.827 372.97 403.402 371.786 403.572Z" fill="#231F20"/>
</g>
<defs>
<clipPath id="clip0_5337_55035">
<rect width="975" height="415" fill="white"/>
</clipPath>
<clipPath id="clip1_5337_55035">
<rect width="360" height="401" fill="white" transform="translate(304 7)"/>
</clipPath>
</defs>
</svg>
